<?xml version="1.0" ?><svg id="Layer_1" style="enable-background:new 0 0 143.333328 130;" version="1.1" viewBox="0 0 143.333328 130" xml:space="preserve" xmlns="http://www.w3.org/2000/svg" xmlns:xlink="http://www.w3.org/1999/xlink"><style type="text/css">
	.st0{fill:#FFFFFF;}
	.st1{fill-rule:evenodd;clip-rule:evenodd;fill:#E2001A;}
	.st2{fill:#E2001A;}
	.st3{fill-rule:evenodd;clip-rule:evenodd;fill:#1A171B;}
	.st4{fill:#1A171B;}
</style><title/><g id="Layer_2_1_"><g id="Livello_1"><path class="st0" d="M44.5788,83.357452h7.131523c1.517059,0,2.746883-1.22982,2.746883-2.74688c0,0,0,0,0,0v-0.606384    c1.431286,2.139366,3.853142,3.40303,6.426662,3.353264h6.079418c1.517059,0,2.74688-1.22982,2.74688-2.74688c0,0,0,0,0,0    v-0.238411c2.476723,2.159027,5.64949,3.351578,8.935143,3.358452c3.726067-0.002182,7.296326-1.495239,9.914688-4.146233v1.03656    c-0.002869,1.517052,1.224632,2.749191,2.741692,2.752052c0.001732,0.000008,0.003456,0.000008,0.005188,0.000008h7.499504    c0.398201-0.003181,0.790909-0.093391,1.150581-0.26432c0.360909,0.172638,0.755676,0.262917,1.155754,0.26432h7.473587    c1.514107,0.017296,2.755547-1.196091,2.77285-2.71019c0.000259-0.022598,0.000237-0.045197-0.000069-0.067787v-0.51828    c3.629364,3.603943,9.043037,4.727722,13.806961,2.866081c0.423195,0.263794,0.911064,0.405495,1.409721,0.409447h7.359566    c1.519928,0,2.75206-1.23214,2.75206-2.752068V58.521507c0.001389-1.434803-1.103683-2.628021-2.534378-2.736515h-0.274689    v-0.196945c0.074326-1.930672-1.430527-3.556053-3.361206-3.630386c-1.930679-0.074329-3.556061,1.430531-3.630386,3.361206    c-0.003456,0.089695-0.003456,0.179489,0,0.26918c0,0.062195,0,0.12439,0,0.186581h-0.295425    c-0.574631,0.00264-1.134254,0.183746-1.601479,0.51828c-1.460617-0.615143-3.027847-0.937393-4.612686-0.948452    c-3.380287,0.017078-6.618713,1.360836-9.018059,3.741978V48.834869c0.000046-1.519924-1.232056-2.752098-2.751976-2.75214    c-0.00695-0.000004-0.013885,0.000023-0.020821,0.000076h-7.473587c-0.399857,0.003258-0.794228,0.093449-1.155762,0.264324    c-0.360909-0.172642-0.755676-0.262928-1.155754-0.264324h-7.494324c-1.519928,0-2.75206,1.23214-2.75206,2.752064v9.9095    c-2.60688-2.669853-6.178032-4.179005-9.9095-4.187698c-3.225616-0.000515-6.34713,1.141594-8.810753,3.223698    c-0.316223-1.1931-1.398567-2.021904-2.632858-2.016106h-1.492645v-4.664513    c-0.002563-1.51992-1.236794-2.749977-2.756714-2.747402c-0.344406,0.00058-0.685646,0.065807-1.005993,0.192284    l-7.18335,2.850536c-1.045231,0.41758-1.730831,1.429558-1.731052,2.555119v1.813976h-0.134758    c-0.202576,0.000172-0.404408,0.024529-0.601204,0.072559c-0.192226-0.043442-0.388584-0.066032-0.585655-0.067375H43.02396    c-0.398506,0.000591-0.791767,0.090935-1.150581,0.26432c-0.362946-0.172085-0.75927-0.262321-1.160942-0.26432h-9.329029    c-1.084024-0.000027-2.066681,0.637482-2.508471,1.627396c-2.523197-1.879429-5.731026-2.58704-8.810749-1.943546    c-0.707043,0.197666-1.399704,0.443562-2.073116,0.735954c-0.435661-0.271297-0.937963-0.416607-1.451183-0.419804H9.41873    c-1.514187-0.005737-2.746327,1.217106-2.752063,2.731293c-0.000026,0.006924-0.000026,0.013844,0,0.020767v22.073517    c-0.048662,1.464729,1.099287,2.691574,2.564017,2.740234c0.02812,0.000938,0.056254,0.001427,0.084391,0.001465h9.354941    c0.399864-0.003258,0.794233-0.093452,1.155764-0.264328c0.363804,0.169594,0.759579,0.259705,1.160944,0.264328h8.675997    c0.73119,0.000076,1.432352-0.290833,1.948729-0.808517c0.233234-0.236862,0.421179-0.514389,0.55456-0.818878    c2.533253,1.887878,5.755016,2.597542,8.847027,1.94873c0.708443-0.19323,1.401417-0.439232,2.073116-0.735954    C43.535591,83.198601,44.051189,83.348984,44.5788,83.357452z"/><path class="st1" d="M55.768448,75.277481V64.621658h-2.871269v-5.903202h2.871269v-4.56086l7.18335-2.866085v7.426945h4.244713    v5.908382h-4.255074v8.707092c0,1.342346,0.673763,1.829529,2.342621,1.829529h1.679222v5.701073h-6.079414    c-3.244431,0-5.115417-2.477379-5.115417-5.561142"/><rect class="st2" height="31.791252" width="7.504682" x="91.327599" y="49.031815"/><polyline class="st1" points="101.154167,49.02663 108.627754,49.031815 108.627754,80.823067 101.154167,80.823067     101.154167,49.02663   "/><path class="st1" d="M74.851494,66.850258c0-1.342346,1.58593-3.109676,3.78344-3.109676    c2.384087,0,3.866364,2.000561,3.866364,3.109676H74.851494 M89.757202,72.209267    c-1.167419,5.209953-5.762764,8.934288-11.10154,8.99733c-6.302284,0-11.267395-5.281265-11.267395-11.832321    s4.965118-11.889324,11.267395-11.889324s11.402145,5.317547,11.402145,11.868595    c0.004219,0.630074-0.044327,1.259384-0.145119,1.881355H74.638992c0.179428,2.048592,1.91394,3.608749,3.970024,3.570946    c1.661575-0.005363,3.145966-1.039688,3.726433-2.596581H89.757202z"/><path class="st1" d="M44.558067,58.718456h7.136703v22.120159h-7.131519V78.69294    c-1.731052,1.674042-2.33744,2.000557-4.146233,2.539566c-2.689869,0.653038-6.131248-0.580475-7.432129-2.36853    c-1.044191-1.363792-1.607336-3.035004-1.601482-4.752625V58.718456h7.10561v12.956982    c0,2.233788,1.223141,3.741982,3.068211,3.741982c1.689594,0,3.000839-1.492645,3.000839-3.741982V58.718456"/><path class="st3" d="M16.513973,80.807518H9.356536V58.718456h7.157437v2.15604    c1.731054-1.679226,2.33744-2.005741,4.146235-2.549934c2.679504-0.658215,6.110514,0.580475,7.426945,2.373718    c1.025152,1.372551,1.589401,3.034451,1.611849,4.747444v15.361794h-7.147074V67.85054    c0-2.228607-1.202408-3.731613-3.06303-3.731613c-1.679226,0-2.990473,1.487457-2.990473,3.731613v12.956978"/><path class="st1" d="M117.060158,69.742256c0.071564-2.709724,2.326241-4.848381,5.035973-4.776825    c2.709724,0.071564,4.848381,2.326241,4.776817,5.035965c-0.070213,2.658615-2.245148,4.777611-4.904678,4.778534    C119.222328,74.742966,117.025589,72.488228,117.060158,69.742256 M109.804253,69.799271    c0-6.359291,4.762985-11.510986,10.655823-11.510986c2.270355,0.059174,4.457253,0.868324,6.219345,2.301163v-1.870991h7.328468    v22.114979h-7.390656v-1.782883c-1.55484,1.55484-3.819717,2.249336-6.219353,2.249336    c-5.851379,0.025909-10.629913-5.156883-10.629913-11.500626L109.804253,69.799271z"/><path class="st3" d="M130.017151,54.432285h0.155472c0.264328,0,0.564926,0.025913,0.564926,0.336884    c0,0.310966-0.300598,0.362793-0.564926,0.362793h-0.155472V54.432285 M129.498871,56.619423h0.51828v-1.078018h0.150284    c0.238419,0,0.285065,0.07774,0.367981,0.26432l0.305786,0.813698h0.601212l-0.430176-1.010643    c-0.046646-0.119205-0.139938-0.25914-0.274689-0.269505l0,0c0.312805-0.027233,0.550842-0.292473,0.544205-0.606388    c0-0.715225-0.673767-0.699677-1.238693-0.699677h-0.51828L129.498871,56.619423z"/><path class="st4" d="M130.359207,53.126221c-1.213654,0.000004-2.197495,0.98386-2.197495,2.19751    c0,1.213646,0.983856,2.197502,2.19751,2.197498c1.213638,0,2.197495-0.983856,2.197495-2.197502    c0.002869-1.210785-0.976349-2.194641-2.187119-2.197506C130.366135,53.126213,130.362671,53.126213,130.359207,53.126221z     M130.359207,57.303555c-1.09343-0.000004-1.979828-0.886402-1.979828-1.979832s0.886414-1.979824,1.979843-1.979824    c1.09343,0.000004,1.979813,0.886402,1.979813,1.979828c0,1.09343-0.886398,1.979828-1.979828,1.979824    C130.359207,57.303551,130.359207,57.303551,130.359207,57.303555z"/></g></g></svg>