<?xml version="1.0" encoding="UTF-8"?>
<svg version="1.1" xmlns="http://www.w3.org/2000/svg" width="1024" height="596">
<path d="M0 0 C337.92 0 675.84 0 1024 0 C1024 196.68 1024 393.36 1024 596 C686.08 596 348.16 596 0 596 C0 399.32 0 202.64 0 0 Z " fill="#FEFEFE" transform="translate(0,0)"/>
<path d="M0 0 C1.82337891 -0.04350586 1.82337891 -0.04350586 3.68359375 -0.08789062 C11.82460001 -0.14497427 19.22020836 0.55231938 25.87524414 5.65429688 C28.47172951 8.31120665 29.12026379 10.05200821 29.1875 13.75 C25.36049786 26.58171306 14.89079863 32.71904534 3.765625 38.9453125 C-7.10166166 44.70910125 -18.98675999 47.64630385 -31.03125 49.76953125 C-33.80948588 50.16660468 -33.80948588 50.16660468 -35.875 51.3125 C-40.22409856 51.55901935 -44.58221542 51.49771855 -48.9375 51.5 C-50.74250977 51.51836914 -50.74250977 51.51836914 -52.58398438 51.53710938 C-68.74679428 51.56359131 -68.74679428 51.56359131 -74.28515625 47.578125 C-76.76889665 44.54831402 -78.63345691 42.18577118 -79.6875 38.375 C-76.69083598 27.07988177 -66.44015195 19.82504872 -56.97265625 14.00390625 C-48.43011318 9.33944074 -39.22785955 6.29263175 -29.9375 3.5 C-29.25220215 3.29294434 -28.5669043 3.08588867 -27.86083984 2.87255859 C-18.64371764 0.21897527 -9.53985816 0.07539403 0 0 Z " fill="#2D6D8A" transform="translate(222.875,316.6875)"/>
<path d="M0 0 C1.5625 1.8125 1.5625 1.8125 2.0625 4.625 C1.19696858 10.14276278 -1.68583871 13.41117097 -5.9375 16.8125 C-11.09348946 20.47621792 -16.72321536 23.13910832 -22.4375 25.8125 C-23.92443359 26.51439453 -23.92443359 26.51439453 -25.44140625 27.23046875 C-34.98517965 31.65826022 -42.46234405 33.19968758 -53 33.25 C-54.21880859 33.28287109 -55.43761719 33.31574219 -56.69335938 33.34960938 C-66.6460432 33.40966397 -66.6460432 33.40966397 -69.73046875 30.4921875 C-72.07712601 26.8084189 -72.3123436 25.11381435 -71.4375 20.8125 C-65.16661487 10.50747858 -53.27763902 5.7992178 -42.4375 1.8125 C-41.37917969 1.41675781 -40.32085937 1.02101563 -39.23046875 0.61328125 C-28.31555169 -3.00808239 -10.81657897 -5.26961539 0 0 Z " fill="#2F6F8B" transform="translate(134.4375,326.1875)"/>
<path d="M0 0 C4.35574208 -0.1501051 8.71005266 -0.25802123 13.06762695 -0.32958984 C14.54478221 -0.35947031 16.02176466 -0.40019224 17.49829102 -0.45263672 C27.00318733 -0.78139203 35.35555265 -0.4685824 43 6 C46.85887783 11.52917029 46.74965901 16.43612516 46 23 C44.68696598 27.84071875 41.78561726 30.39039935 37.5625 32.875 C29.9806801 36.85710367 22.38901456 36.07840201 14 36 C14.33 44.25 14.66 52.5 15 61 C15.66 61.33 16.32 61.66 17 62 C17 62.66 17 63.32 17 64 C12.71 64 8.42 64 4 64 C4 44.2 4 24.4 4 4 C2.68 4 1.36 4 0 4 C0 2.68 0 1.36 0 0 Z " fill="#32718D" transform="translate(730,295)"/>
<path d="M0 0 C4.10757963 -0.07489276 8.2148876 -0.12894754 12.32299805 -0.16479492 C13.71662328 -0.17975938 15.11020244 -0.20013851 16.50366211 -0.22631836 C35.59903699 -0.57574933 35.59903699 -0.57574933 42.5 6.0625 C45.74387491 10.36652397 46.49247365 14.68774329 46 20 C44.84933542 24.18307897 43.7306754 27.99122745 39.85546875 30.25 C39.24316406 30.4975 38.63085938 30.745 38 31 C38 31.66 38 32.32 38 33 C32.16604284 34.68389218 27.05059819 35.26022895 21 35.125 C17.04 35.063125 17.04 35.063125 13 35 C13.33 43.58 13.66 52.16 14 61 C14.99 61.33 15.98 61.66 17 62 C17 62.66 17 63.32 17 64 C12.71 64 8.42 64 4 64 C3.67 44.2 3.34 24.4 3 4 C2.01 3.67 1.02 3.34 0 3 C0 2.01 0 1.02 0 0 Z " fill="#2B6C89" transform="translate(360,295)"/>
<path d="M0 0 C0.91974609 -0.03738281 1.83949219 -0.07476562 2.78710938 -0.11328125 C7.26176426 -0.17118476 10.45065954 -0.13294684 14.04296875 2.72265625 C16.4375 5.375 16.4375 5.375 17.1875 8.1875 C15.42620099 15.67302078 10.55614502 19.58606426 4.25 23.625 C-1.49545849 26.96995871 -7.22960736 29.40389936 -13.5625 31.375 C-14.4184375 31.72949219 -15.274375 32.08398438 -16.15625 32.44921875 C-21.14148269 33.80415011 -25.98093448 33.78336432 -31.125 33.8125 C-32.15302734 33.84537109 -33.18105469 33.87824219 -34.24023438 33.91210938 C-41.75602032 33.96568918 -41.75602032 33.96568918 -45.73046875 31.0546875 C-47.5625 28.375 -47.5625 28.375 -48.3125 25.0625 C-46.93357614 18.28279103 -41.96840632 14.17209667 -36.5 10.25 C-24.85637492 2.96025188 -13.61002608 0.21071117 0 0 Z " fill="#2E6E8B" transform="translate(297.5625,274.625)"/>
<path d="M0 0 C3.96 0 7.92 0 12 0 C12.62648438 1.83046875 13.25296875 3.6609375 13.8984375 5.546875 C14.72381277 7.94796671 15.5493416 10.34900564 16.375 12.75 C16.7875 13.9565625 17.2 15.163125 17.625 16.40625 C18.02460937 17.56640625 18.42421875 18.7265625 18.8359375 19.921875 C19.38580322 21.52434082 19.38580322 21.52434082 19.94677734 23.15917969 C20.83221715 25.54744524 21.80247199 27.75640998 23 30 C27.99640529 16.65527784 27.99640529 16.65527784 32 3 C31.01 3 30.02 3 29 3 C29 2.01 29 1.02 29 0 C32.96 0 36.92 0 41 0 C41.556875 1.835625 42.11375 3.67125 42.6875 5.5625 C43.87063463 9.42571022 45.08003607 13.27184366 46.37890625 17.09765625 C46.60682861 17.76917725 46.83475098 18.44069824 47.06958008 19.13256836 C47.7246279 21.05070444 48.38563265 22.96680305 49.046875 24.8828125 C50 28 50 28 50 31 C50.66 31 51.32 31 52 31 C52.12238037 30.28884033 52.24476074 29.57768066 52.37084961 28.8449707 C53.02182517 25.90130823 53.95536926 23.28153384 55.06640625 20.48046875 C55.6706543 18.9480957 55.6706543 18.9480957 56.28710938 17.38476562 C56.70798828 16.32966797 57.12886719 15.27457031 57.5625 14.1875 C57.98724609 13.11306641 58.41199219 12.03863281 58.84960938 10.93164062 C59.89600656 8.28625448 60.94625244 5.64246489 62 3 C60.68 3 59.36 3 58 3 C58 2.01 58 1.02 58 0 C61.96 0 65.92 0 70 0 C69.29686193 3.51569035 68.83006513 5.71589898 67.3984375 8.79296875 C67.07625244 9.49728027 66.75406738 10.2015918 66.42211914 10.92724609 C66.07656982 11.67312988 65.73102051 12.41901367 65.375 13.1875 C62.42444998 19.68502355 59.64349498 26.22166223 57.0625 32.875 C56.76843262 33.62934326 56.47436523 34.38368652 56.17138672 35.16088867 C54.92145568 38.41389532 53.79702837 41.60876833 53 45 C50.69 45 48.38 45 46 45 C45.73932739 44.20710571 45.73932739 44.20710571 45.47338867 43.39819336 C44.08113978 39.18941993 42.65610342 34.99507694 41.17578125 30.81640625 C40.71655273 29.51993164 40.71655273 29.51993164 40.24804688 28.19726562 C39.61441448 26.4127769 38.97894212 24.62894062 38.34179688 22.84570312 C38.03951172 21.99041016 37.73722656 21.13511719 37.42578125 20.25390625 C37.15161377 19.48377197 36.87744629 18.7136377 36.5949707 17.92016602 C36 16 36 16 36 14 C35.34 14 34.68 14 34 14 C33.89558594 14.81726563 33.79117188 15.63453125 33.68359375 16.4765625 C32.87686281 20.63468425 31.53245005 24.41283248 30.0625 28.375 C28.03104195 33.87130499 26.33400886 39.29018432 25 45 C22.69 45 20.38 45 18 45 C17.82259277 44.45835205 17.64518555 43.9167041 17.46240234 43.35864258 C15.61552344 37.76340354 13.6640553 32.21541588 11.625 26.6875 C11.17145142 25.45398804 11.17145142 25.45398804 10.70874023 24.19555664 C8.57655291 18.44152536 6.30133812 12.77766584 3.84765625 7.15234375 C3 5 3 5 3 3 C2.01 3 1.02 3 0 3 C0 2.01 0 1.02 0 0 Z " fill="#34738E" transform="translate(536,315)"/>
<path d="M0 0 C9.09312092 -0.42764678 9.09312092 -0.42764678 12.71875 2.4140625 C16.80643769 7.25474529 17.35322817 11.23542829 17.5078125 17.49609375 C17.52717865 18.17709641 17.5465448 18.85809906 17.5664978 19.55973816 C17.62593132 21.71938843 17.672532 23.87909307 17.71875 26.0390625 C17.75696328 27.50978794 17.79601694 28.98049179 17.8359375 30.45117188 C17.93160183 34.04277039 18.01576575 37.63453163 18.09375 41.2265625 C19.08375 41.5565625 20.07375 41.8865625 21.09375 42.2265625 C21.09375 43.2165625 21.09375 44.2065625 21.09375 45.2265625 C17.13375 45.2265625 13.17375 45.2265625 9.09375 45.2265625 C9.09375 43.9065625 9.09375 42.5865625 9.09375 41.2265625 C7.44375 41.8865625 5.79375 42.5465625 4.09375 43.2265625 C4.09375 43.8865625 4.09375 44.5465625 4.09375 45.2265625 C-0.58933743 47.56810622 -6.83814071 46.86594203 -11.90625 46.2265625 C-15.08314747 44.20997719 -16.24230018 41.55446214 -17.90625 38.2265625 C-18.64782886 33.61750909 -18.60315421 29.39149631 -15.96875 25.4140625 C-10.83015927 20.05097023 -1.9101478 19.38548084 5.09375 18.2265625 C6.08375 18.2265625 7.07375 18.2265625 8.09375 18.2265625 C7.83735117 12.1812089 7.83735117 12.1812089 5.59375 6.6640625 C1.82393928 4.49642134 -1.67103515 4.31400239 -5.90625 5.2265625 C-8.74555448 7.84745895 -10.34551002 10.71489755 -11.90625 14.2265625 C-12.89625 14.2265625 -13.88625 14.2265625 -14.90625 14.2265625 C-15.19977352 11.17391794 -15.3158365 8.27220572 -14.90625 5.2265625 C-12.40487963 2.19459842 -10.63491675 1.4050115 -6.84375 0.4765625 C-4.56157119 0.33166226 -2.27985701 0.17773079 0 0 Z " fill="#387691" transform="translate(628.90625,313.7734375)"/>
<path d="M0 0 C1.96066406 -0.03867187 1.96066406 -0.03867187 3.9609375 -0.078125 C8.53967302 0.33191102 10.95592476 1.81936408 14.375 4.75 C17.25625721 8.20750865 16.7786472 12.19244008 16.8359375 16.47265625 C16.86398862 17.91212109 16.89265295 19.35157408 16.921875 20.79101562 C16.96325004 23.05802292 17.00014233 25.32480479 17.02636719 27.59204102 C17.0538854 29.78187418 17.09973092 31.97070589 17.1484375 34.16015625 C17.1781665 36.12674194 17.1781665 36.12674194 17.20849609 38.13305664 C17.34594238 39.16164795 17.48338867 40.19023926 17.625 41.25 C18.615 41.91 19.605 42.57 20.625 43.25 C20.625 43.91 20.625 44.57 20.625 45.25 C16.665 45.25 12.705 45.25 8.625 45.25 C8.295 44.26 7.965 43.27 7.625 42.25 C6.903125 42.91 6.18125 43.57 5.4375 44.25 C0.56041929 47.51694402 -5.77928931 47.20246139 -11.375 46.25 C-15.21644872 43.68016658 -17.21930354 41.76772251 -18.375 37.25 C-18.83803703 33.00549391 -18.66768248 30.81368478 -16.6875 27 C-14.2672194 24.12182848 -12.85790861 22.64316345 -9.375 21.25 C-6.35627368 21.02130861 -3.39523846 21.07233891 -0.375 21.25 C-0.375 20.59 -0.375 19.93 -0.375 19.25 C2.595 18.92 5.565 18.59 8.625 18.25 C8.36879316 16.6434324 8.09444129 15.0397517 7.8125 13.4375 C7.66167969 12.54417969 7.51085937 11.65085937 7.35546875 10.73046875 C6.53834085 7.95572962 6.02836917 6.85224612 3.625 5.25 C0.88256437 4.88729516 0.88256437 4.88729516 -2.0625 5.0625 C-3.05636719 5.08957031 -4.05023438 5.11664063 -5.07421875 5.14453125 C-6.21310547 5.19673828 -6.21310547 5.19673828 -7.375 5.25 C-7.81972656 6.13945312 -7.81972656 6.13945312 -8.2734375 7.046875 C-9.640625 9.78125 -11.0078125 12.515625 -12.375 15.25 C-13.365 15.25 -14.355 15.25 -15.375 15.25 C-15.66533531 11.86920665 -15.80907528 8.62202384 -15.375 5.25 C-10.90261712 0.29411627 -6.40584435 0.07551094 0 0 Z " fill="#3B7792" transform="translate(427.375,313.75)"/>
<path d="M0 0 C0.71607422 -0.01224609 1.43214844 -0.02449219 2.16992188 -0.03710938 C5.94090471 -0.04759404 8.92781265 -0.03736346 12.0625 2.1875 C15.83804228 7.50122617 16.19463892 11.93634233 16.37890625 18.359375 C16.39968735 19.0417926 16.42046844 19.72421021 16.44187927 20.42730713 C16.50702052 22.59727356 16.56609404 24.76735624 16.625 26.9375 C16.66821897 28.41277221 16.71183432 29.88803287 16.75585938 31.36328125 C16.86266518 34.97123166 16.96403153 38.57931133 17.0625 42.1875 C18.0525 42.5175 19.0425 42.8475 20.0625 43.1875 C20.0625 43.8475 20.0625 44.5075 20.0625 45.1875 C16.1025 45.1875 12.1425 45.1875 8.0625 45.1875 C8.0625 43.8675 8.0625 42.5475 8.0625 41.1875 C7.13630859 41.72890625 7.13630859 41.72890625 6.19140625 42.28125 C0.39311715 45.45839471 -4.29357345 47.38472241 -10.9375 46.1875 C-14.08597243 44.887044 -15.55490061 43.6360648 -17.75 41.0625 C-19.38857138 37.09543244 -20.10523677 33.37024073 -18.9375 29.1875 C-16.83395306 25.51848733 -14.56036913 22.82801377 -10.56958008 21.25292969 C-7.90623938 20.61198262 -5.2727684 20.14629459 -2.5625 19.75 C-1.17224609 19.51120117 -1.17224609 19.51120117 0.24609375 19.26757812 C2.5152733 18.88158367 4.78533619 18.52252733 7.0625 18.1875 C6.93460355 16.74020116 6.79739963 15.29372271 6.65625 13.84765625 C6.58083984 13.04207275 6.50542969 12.23648926 6.42773438 11.40649414 C6.17147333 9.02266148 6.17147333 9.02266148 4.5625 6.625 C0.79268928 4.45735884 -2.70228515 4.27493989 -6.9375 5.1875 C-9.77680448 7.80839645 -11.37676002 10.67583505 -12.9375 14.1875 C-13.9275 14.1875 -14.9175 14.1875 -15.9375 14.1875 C-16.23104834 11.13459731 -16.36782367 8.23125276 -15.9375 5.1875 C-11.27820325 0.15042244 -6.50683903 0.00582528 0 0 Z " fill="#32718D" transform="translate(798.9375,313.8125)"/>
<path d="M0 0 C3.52289782 2.74100778 4.62415428 5.92526924 5.75390625 10.09375 C5.97536524 12.54336454 6.10700555 15.00208838 6.16796875 17.4609375 C6.1873349 18.14052521 6.20670105 18.82011292 6.22665405 19.52029419 C6.28595724 21.66965579 6.33263516 23.81907241 6.37890625 25.96875 C6.41713157 27.4349179 6.45618589 28.90106443 6.49609375 30.3671875 C6.59161669 33.94251164 6.67582751 37.51799748 6.75390625 41.09375 C7.74390625 41.58875 7.74390625 41.58875 8.75390625 42.09375 C8.75390625 42.75375 8.75390625 43.41375 8.75390625 44.09375 C5.12390625 44.09375 1.49390625 44.09375 -2.24609375 44.09375 C-2.24609375 42.77375 -2.24609375 41.45375 -2.24609375 40.09375 C-2.80296875 40.4546875 -3.35984375 40.815625 -3.93359375 41.1875 C-9.40277765 44.51335507 -12.849279 45.91914545 -19.24609375 45.09375 C-23.74553555 43.83138156 -26.77744781 42.14319553 -29.24609375 38.09375 C-29.75 35.76171875 -29.75 35.76171875 -29.80859375 33.28125 C-29.87240234 32.06501953 -29.87240234 32.06501953 -29.9375 30.82421875 C-28.8562835 26.55432985 -26.7124253 23.79274869 -23.24609375 21.09375 C-19.85123715 19.75701865 -16.47095729 19.18262092 -12.87109375 18.65625 C-11.48083984 18.41745117 -11.48083984 18.41745117 -10.0625 18.17382812 C-7.79332045 17.78783367 -5.52325756 17.42877733 -3.24609375 17.09375 C-3.57861843 11.13837879 -3.57861843 11.13837879 -5.50390625 5.5703125 C-8.43355987 3.08733253 -11.10098058 3.43151959 -14.796875 3.56640625 C-17.55156331 4.15952096 -18.50448368 4.78470121 -20.30859375 6.90625 C-22.32325317 9.95433319 -22.32325317 9.95433319 -23.24609375 13.09375 C-24.23609375 13.09375 -25.22609375 13.09375 -26.24609375 13.09375 C-26.53963471 10.04092403 -26.67123665 7.13798312 -26.24609375 4.09375 C-20.41554253 -2.38464025 -7.87430645 -3.17711147 0 0 Z " fill="#31708C" transform="translate(941.24609375,314.90625)"/>
<path d="M0 0 C-0.06674862 3.33743087 -0.15153823 6.00011305 -2.37890625 8.625 C-4.19198931 10.18254786 -6.06730097 11.59440071 -8 13 C-8.50402344 13.4434375 -9.00804687 13.886875 -9.52734375 14.34375 C-15.12594489 19.01637385 -22.07467387 20.24234413 -29 22 C-29.69996094 22.22816406 -30.39992188 22.45632813 -31.12109375 22.69140625 C-34.4104374 23.73901458 -37.59735585 24.0965982 -41.0390625 24.1171875 C-41.77012207 24.12202148 -42.50118164 24.12685547 -43.25439453 24.13183594 C-46.50415521 24.12194321 -49.75098754 24.07097357 -53 24 C-53 23.34 -53 22.68 -53 22 C-54.32 21.67 -55.64 21.34 -57 21 C-57 18.69 -57 16.38 -57 14 C-56.34 14 -55.68 14 -55 14 C-54.75765625 13.41089844 -54.5153125 12.82179688 -54.265625 12.21484375 C-49.41251639 3.72190369 -37.70401298 0.68461123 -29 -2 C-28.28070313 -2.2475 -27.56140625 -2.495 -26.8203125 -2.75 C-17.90803299 -5.50400912 -7.57251386 -5.76953437 0 0 Z " fill="#419796" transform="translate(106,295)"/>
<path d="M0 0 C4.29 0 8.58 0 13 0 C13.33 14.52 13.66 29.04 14 44 C22.77615339 35.25218732 22.77615339 35.25218732 31 26 C33.45703125 25.4140625 33.45703125 25.4140625 35.8125 25.625 C36.60269531 25.67914063 37.39289062 25.73328125 38.20703125 25.7890625 C38.79871094 25.85867188 39.39039063 25.92828125 40 26 C40 26.66 40 27.32 40 28 C38.3125 29.48046875 38.3125 29.48046875 36 31.1875 C31.47902855 34.59793171 27.21523995 38.22121541 23 42 C23.54050404 46.26166651 26.16118519 49.12775831 28.75 52.375 C29.18054688 52.92671875 29.61109375 53.4784375 30.0546875 54.046875 C31.35731829 55.70831427 32.67522596 57.35617682 34 59 C34.44947998 59.56187012 34.89895996 60.12374023 35.36206055 60.70263672 C37.69461231 63.57167969 39.47498744 65.69443979 43 67 C43 67.99 43 68.98 43 70 C32.79859758 71.35683677 32.79859758 71.35683677 28.99609375 68.48828125 C27.14966847 66.08125456 25.58743917 63.58604516 24 61 C22.71323564 59.16183643 21.39939744 57.34550044 20.07885742 55.53149414 C18.03082187 52.70328597 16.01913332 49.84891413 14 47 C14 53.6 14 60.2 14 67 C14.66 67.33 15.32 67.66 16 68 C16 68.66 16 69.32 16 70 C12.04 70 8.08 70 4 70 C3.67 48.22 3.34 26.44 3 4 C2.01 3.67 1.02 3.34 0 3 C0 2.01 0 1.02 0 0 Z " fill="#2B6C89" transform="translate(492,289)"/>
<path d="M0 0 C5.61344714 0.03697111 8.60155501 0.71389693 12.60546875 4.63671875 C15.80226507 9.17125138 16.11527017 13.24467454 16.0703125 18.70703125 C16.0674826 19.38803391 16.06465271 20.06903656 16.06173706 20.77067566 C16.05060525 22.93063455 16.02551457 25.09016794 16 27.25 C15.98996111 28.72069711 15.98083685 30.19140076 15.97265625 31.66210938 C15.95068913 35.25404286 15.9162082 38.84572985 15.875 42.4375 C17.195 42.4375 18.515 42.4375 19.875 42.4375 C19.875 43.4275 19.875 44.4175 19.875 45.4375 C15.585 45.4375 11.295 45.4375 6.875 45.4375 C6.845271 43.87068481 6.845271 43.87068481 6.81494141 42.2722168 C6.73887886 38.3974595 6.65016272 34.52307743 6.55761719 30.64868164 C6.51933007 28.97167366 6.48447669 27.29458362 6.453125 25.61743164 C6.40746821 23.20689568 6.3494759 20.79692443 6.2890625 18.38671875 C6.27751129 17.63662033 6.26596008 16.88652191 6.25405884 16.11369324 C6.14804541 12.37622287 5.99880918 10.62321377 3.875 7.4375 C-0.59754497 5.94665168 -4.65245503 5.94665168 -9.125 7.4375 C-10.29453416 9.86133077 -10.29453416 9.86133077 -11.125 12.4375 C-11.455 13.0975 -11.785 13.7575 -12.125 14.4375 C-12.21027628 16.46982634 -12.23216135 18.50497006 -12.22265625 20.5390625 C-12.21943359 21.75078125 -12.21621094 22.9625 -12.21289062 24.2109375 C-12.20451172 25.48195313 -12.19613281 26.75296875 -12.1875 28.0625 C-12.18298828 29.34125 -12.17847656 30.62 -12.17382812 31.9375 C-12.16201203 35.10421292 -12.14553815 38.27083356 -12.125 41.4375 C-11.135 41.7675 -10.145 42.0975 -9.125 42.4375 C-9.125 43.7575 -9.125 45.0775 -9.125 46.4375 C-13.415 46.4375 -17.705 46.4375 -22.125 46.4375 C-22.125 32.5775 -22.125 18.7175 -22.125 4.4375 C-23.445 4.4375 -24.765 4.4375 -26.125 4.4375 C-26.125 3.4475 -26.125 2.4575 -26.125 1.4375 C-22.165 1.4375 -18.205 1.4375 -14.125 1.4375 C-13.465 3.0875 -12.805 4.7375 -12.125 6.4375 C-11.320625 5.633125 -10.51625 4.82875 -9.6875 4 C-6.01980262 0.33230262 -5.28286319 0.19855864 0 0 Z " fill="#32718D" transform="translate(853.125,313.5625)"/>
<path d="M0 0 C0 0.66 0 1.32 0 2 C0.61875 2.144375 1.2375 2.28875 1.875 2.4375 C4 3 4 3 6 4 C6.53994717 7.08541241 6.44688122 9.22602015 4.86328125 11.96875 C-1.1101012 19.48971579 -9.90434194 23.41815956 -19 26 C-25.50883933 26.58313712 -31.91547378 26.51317387 -38 24 C-40 21 -40 21 -39.6875 17.9375 C-39 15 -39 15 -38 13 C-37.34 13 -36.68 13 -36 13 C-35.67 12.01 -35.34 11.02 -35 10 C-33.34382655 8.97317246 -31.67769876 7.95762093 -29.95703125 7.04296875 C-28.1057418 6.05635342 -26.34593402 4.9778592 -24.5625 3.875 C-16.67717987 -0.54634947 -8.81702805 -0.24193065 0 0 Z " fill="#3F9695" transform="translate(313,235)"/>
<path d="M0 0 C3.96 0 7.92 0 12 0 C15.37873481 7.98610045 18.58954935 16.01553387 21.67602539 24.11865234 C22.87234273 27.83550518 22.87234273 27.83550518 25 31 C29.15713291 21.79825638 33.04936712 12.6766097 36 3 C35.01 3 34.02 3 33 3 C33 2.01 33 1.02 33 0 C36.96 0 40.92 0 45 0 C43.76662227 3.08344433 42.5389537 6.08279097 41.15576172 9.08984375 C40.80134003 9.86255615 40.44691833 10.63526855 40.08175659 11.43139648 C39.70157379 12.25841064 39.32139099 13.0854248 38.9296875 13.9375 C38.10644135 15.73943284 37.2835367 17.54152173 36.4609375 19.34375 C35.18092474 22.14601865 33.89919366 24.9474246 32.61132812 27.74609375 C27.48900931 38.88573873 22.67584662 50.05793022 18.42990112 61.56420898 C18.12319489 62.39509033 17.81648865 63.22597168 17.50048828 64.08203125 C17.09988693 65.18381714 17.09988693 65.18381714 16.69119263 66.30786133 C16 68 16 68 15 69 C12.32941149 69.14115161 9.67567762 69.04247107 7 69 C8.71623252 63.24927324 11.3651943 58.19634207 14.16601562 52.921875 C14.51470703 52.24640625 14.86339844 51.5709375 15.22265625 50.875 C15.53984619 50.27429688 15.85703613 49.67359375 16.18383789 49.0546875 C18.44149463 43.37103834 17.95720088 39.85490568 15.578125 34.28125 C15.1871463 33.34980164 15.1871463 33.34980164 14.78826904 32.39953613 C13.95600207 30.42681486 13.10324733 28.46372363 12.25 26.5 C11.69138411 25.18154986 11.13407958 23.8625433 10.578125 22.54296875 C7.62899694 15.57101466 7.62899694 15.57101466 4.31542969 8.76757812 C3 6 3 6 3 3 C2.01 3 1.02 3 0 3 C0 2.01 0 1.02 0 0 Z " fill="#33728E" transform="translate(654,315)"/>
<path d="M0 0 C1.02222656 -0.02578125 2.04445312 -0.0515625 3.09765625 -0.078125 C6.31355133 0.29345022 7.64591319 1.00144768 9.9375 3.25 C10.5 5.625 10.5 5.625 9.9375 8.25 C7.37629574 11.29575642 5.73230342 12.98506553 1.9375 14.25 C1.9375 14.91 1.9375 15.57 1.9375 16.25 C-9.0995792 22.06864145 -21.48901881 25.53626165 -33.8125 22.25 C-34.555 21.92 -35.2975 21.59 -36.0625 21.25 C-36.875 19.125 -36.875 19.125 -37.0625 16.25 C-32.76774852 9.87294477 -27.4355803 6.41855303 -20.0625 4.25 C-18.54071754 3.7319464 -17.01994356 3.21092427 -15.5 2.6875 C-10.31039045 0.9021263 -5.49758642 0.08340207 0 0 Z " fill="#6597AE" transform="translate(123.0625,252.75)"/>
<path d="M0 0 C0 4.62 0 9.24 0 14 C3.63 14 7.26 14 11 14 C11 15.32 11 16.64 11 18 C7.37 18 3.74 18 0 18 C-0.04953687 22.19920237 -0.08578411 26.39824869 -0.10986328 30.59765625 C-0.11990427 32.02542078 -0.13353981 33.45316483 -0.15087891 34.88085938 C-0.17521152 36.93624941 -0.18650202 38.99136692 -0.1953125 41.046875 C-0.20578613 42.28276367 -0.21625977 43.51865234 -0.22705078 44.79199219 C-0.01298081 47.81659371 0.40346841 49.46985651 2 52 C5.94727588 52.17942163 8.5980513 52.09350689 12 50 C12.33 51.65 12.66 53.3 13 55 C9.61968974 58.09930647 7.09474286 58.48390619 2.5625 58.5625 C1.45003906 58.60503906 0.33757813 58.64757812 -0.80859375 58.69140625 C-4.41940293 57.90913792 -5.71245008 56.67545913 -7.96580505 53.8079071 C-9.75465945 50.68075726 -9.61455269 47.46401957 -9.48828125 43.9765625 C-9.48120651 43.23038666 -9.47413177 42.48421082 -9.46684265 41.71542358 C-9.43903177 39.35089408 -9.376328 36.9888037 -9.3125 34.625 C-9.2873995 33.01435732 -9.26458939 31.40367721 -9.24414062 29.79296875 C-9.1892501 25.86105088 -9.10307849 21.93093777 -9 18 C-10.65 18 -12.3 18 -14 18 C-14 16.35 -14 14.7 -14 13 C-12.35 13 -10.7 13 -9 13 C-9 9.04 -9 5.08 -9 1 C-1.125 0 -1.125 0 0 0 Z " fill="#32718D" transform="translate(894,302)"/>
<path d="M0 0 C1.96066406 -0.03867187 1.96066406 -0.03867187 3.9609375 -0.078125 C8.53967302 0.33191102 10.95592476 1.81936408 14.375 4.75 C17.25625721 8.20750865 16.7786472 12.19244008 16.8359375 16.47265625 C16.86398862 17.91212109 16.89265295 19.35157408 16.921875 20.79101562 C16.96325004 23.05802292 17.00014233 25.32480479 17.02636719 27.59204102 C17.0538854 29.78187418 17.09973092 31.97070589 17.1484375 34.16015625 C17.1781665 36.12674194 17.1781665 36.12674194 17.20849609 38.13305664 C17.34594238 39.16164795 17.48338867 40.19023926 17.625 41.25 C18.615 41.91 19.605 42.57 20.625 43.25 C20.625 43.91 20.625 44.57 20.625 45.25 C16.665 45.25 12.705 45.25 8.625 45.25 C8.295 44.26 7.965 43.27 7.625 42.25 C5.15 42.745 5.15 42.745 2.625 43.25 C3.02818905 40.42767665 3.41685846 39.42887164 5.625 37.53125 C8.27818043 34.50496607 8.21606712 32.47332204 8.375 28.5 C8.43171875 27.32953125 8.4884375 26.1590625 8.546875 24.953125 C8.57265625 24.06109375 8.5984375 23.1690625 8.625 22.25 C5.655 22.25 2.685 22.25 -0.375 22.25 C-0.375 21.26 -0.375 20.27 -0.375 19.25 C2.595 18.92 5.565 18.59 8.625 18.25 C8.36879316 16.6434324 8.09444129 15.0397517 7.8125 13.4375 C7.66167969 12.54417969 7.51085937 11.65085937 7.35546875 10.73046875 C6.53834085 7.95572962 6.02836917 6.85224612 3.625 5.25 C0.88256437 4.88729516 0.88256437 4.88729516 -2.0625 5.0625 C-3.05636719 5.08957031 -4.05023438 5.11664063 -5.07421875 5.14453125 C-6.21310547 5.19673828 -6.21310547 5.19673828 -7.375 5.25 C-7.67148437 5.84296875 -7.96796875 6.4359375 -8.2734375 7.046875 C-9.640625 9.78125 -11.0078125 12.515625 -12.375 15.25 C-13.365 15.25 -14.355 15.25 -15.375 15.25 C-15.66533531 11.86920665 -15.80907528 8.62202384 -15.375 5.25 C-10.90261712 0.29411627 -6.40584435 0.07551094 0 0 Z " fill="#316F8C" transform="translate(427.375,313.75)"/>
<path d="M0 0 C9.09312092 -0.42764678 9.09312092 -0.42764678 12.71875 2.4140625 C16.80643769 7.25474529 17.35322817 11.23542829 17.5078125 17.49609375 C17.52717865 18.17709641 17.5465448 18.85809906 17.5664978 19.55973816 C17.62593132 21.71938843 17.672532 23.87909307 17.71875 26.0390625 C17.75696328 27.50978794 17.79601694 28.98049179 17.8359375 30.45117188 C17.93160183 34.04277039 18.01576575 37.63453163 18.09375 41.2265625 C19.08375 41.5565625 20.07375 41.8865625 21.09375 42.2265625 C21.09375 43.2165625 21.09375 44.2065625 21.09375 45.2265625 C17.13375 45.2265625 13.17375 45.2265625 9.09375 45.2265625 C9.09375 43.9065625 9.09375 42.5865625 9.09375 41.2265625 C6.61875 41.7215625 6.61875 41.7215625 4.09375 42.2265625 C4.73284774 38.51979558 4.73284774 38.51979558 6.59375 37.0078125 C8.83322723 34.34843329 8.61203295 31.95724695 8.78125 28.5390625 C8.84699219 27.35957031 8.91273438 26.18007813 8.98046875 24.96484375 C9.01785156 24.06121094 9.05523438 23.15757812 9.09375 22.2265625 C4.14375 22.7215625 4.14375 22.7215625 -0.90625 23.2265625 C-0.90625 22.5665625 -0.90625 21.9065625 -0.90625 21.2265625 C4.71875 18.2265625 4.71875 18.2265625 8.09375 18.2265625 C7.83735117 12.1812089 7.83735117 12.1812089 5.59375 6.6640625 C1.82393928 4.49642134 -1.67103515 4.31400239 -5.90625 5.2265625 C-8.74555448 7.84745895 -10.34551002 10.71489755 -11.90625 14.2265625 C-12.89625 14.2265625 -13.88625 14.2265625 -14.90625 14.2265625 C-15.19977352 11.17391794 -15.3158365 8.27220572 -14.90625 5.2265625 C-12.40487963 2.19459842 -10.63491675 1.4050115 -6.84375 0.4765625 C-4.56157119 0.33166226 -2.27985701 0.17773079 0 0 Z " fill="#33728E" transform="translate(628.90625,313.7734375)"/>
<path d="M0 0 C1.9375 1.875 1.9375 1.875 2.32421875 4.765625 C1.9375 7.875 1.9375 7.875 0.171875 9.8515625 C-9.09535105 16.00057098 -18.73847045 20.28046466 -30.0625 18.875 C-33.6875 17.875 -33.6875 17.875 -36.0625 16.875 C-36.4375 14.1875 -36.4375 14.1875 -36.0625 10.875 C-34.0465115 8.75562747 -32.47096392 7.43108574 -30.0625 5.875 C-29.37414062 5.42898437 -28.68578125 4.98296875 -27.9765625 4.5234375 C-19.72825758 -0.42554545 -9.37078255 -3.44232828 0 0 Z " fill="#6698AF" transform="translate(181.0625,229.125)"/>
<path d="M0 0 C11.36702128 0 11.36702128 0 14.9375 1.25 C15.64777344 1.48203125 16.35804688 1.7140625 17.08984375 1.953125 C19.54208649 3.29709444 20.60365545 4.58110159 22 7 C22.72942276 11.3979902 22.49235808 15.6152429 21 19.8125 C17.84764989 23.26038294 15.28689647 24.91609199 11 27 C7.37 27 3.74 27 0 27 C0 18.09 0 9.18 0 0 Z " fill="#F6F9F9" transform="translate(373,300)"/>
<path d="M0 0 C13.72093023 0 13.72093023 0 19.9375 5.6875 C22.46911426 9.75342593 22.84524984 12.34648163 22 17 C20.6829442 20.67389249 19.69649919 22.48209035 16.5625 24.8125 C10.66988009 27.5432263 6.99543432 27 0 27 C0 18.09 0 9.18 0 0 Z " fill="#F7FAFA" transform="translate(744,299)"/>
<path d="M0 0 C0.66 0.33 1.32 0.66 2 1 C2 4.63 2 8.26 2 12 C0.68 12 -0.64 12 -2 12 C-2.33 10.68 -2.66 9.36 -3 8 C-6.33200185 7.58228196 -6.33200185 7.58228196 -10 8 C-14.33392069 12.33392069 -15.12794114 15.34327608 -15.31640625 21.3203125 C-15.35830078 22.57714844 -15.40019531 23.83398438 -15.44335938 25.12890625 C-15.48267578 26.44761719 -15.52199219 27.76632812 -15.5625 29.125 C-15.60569512 30.46485751 -15.64930973 31.80470156 -15.69335938 33.14453125 C-15.79970981 36.42957815 -15.90173808 39.71470281 -16 43 C-15.01 43 -14.02 43 -13 43 C-13 43.66 -13 44.32 -13 45 C-16.63 45 -20.26 45 -24 45 C-24 31.47 -24 17.94 -24 4 C-25.32 4 -26.64 4 -28 4 C-28 3.01 -28 2.02 -28 1 C-24.37 1 -20.74 1 -17 1 C-17 3.64 -17 6.28 -17 9 C-16.34 9 -15.68 9 -15 9 C-14.773125 8.2575 -14.54625 7.515 -14.3125 6.75 C-11.08766876 -0.00678927 -6.83552265 -0.56028874 0 0 Z " fill="#2F6E8B" transform="translate(485,314)"/>
<path d="M0 0 C0.71607422 -0.01224609 1.43214844 -0.02449219 2.16992188 -0.03710938 C5.94090471 -0.04759404 8.92781265 -0.03736346 12.0625 2.1875 C15.83804228 7.50122617 16.19463892 11.93634233 16.37890625 18.359375 C16.39968735 19.0417926 16.42046844 19.72421021 16.44187927 20.42730713 C16.50702052 22.59727356 16.56609404 24.76735624 16.625 26.9375 C16.66821897 28.41277221 16.71183432 29.88803287 16.75585938 31.36328125 C16.86266518 34.97123166 16.96403153 38.57931133 17.0625 42.1875 C18.0525 42.5175 19.0425 42.8475 20.0625 43.1875 C20.0625 43.8475 20.0625 44.5075 20.0625 45.1875 C16.1025 45.1875 12.1425 45.1875 8.0625 45.1875 C5.9375 38.5625 5.9375 38.5625 7.0625 35.1875 C7.32001975 31.42107862 7.29387301 27.64929376 7.3125 23.875 C7.333125 22.84181641 7.35375 21.80863281 7.375 20.74414062 C7.40358636 15.17337283 7.34220609 10.93988965 4.0625 6.1875 C0.59710444 4.45480222 -3.1568951 4.58098585 -6.9375 5.1875 C-9.77680448 7.80839645 -11.37676002 10.67583505 -12.9375 14.1875 C-13.9275 14.1875 -14.9175 14.1875 -15.9375 14.1875 C-16.23104834 11.13459731 -16.36782367 8.23125276 -15.9375 5.1875 C-11.27820325 0.15042244 -6.50683903 0.00582528 0 0 Z " fill="#2F6F8C" transform="translate(798.9375,313.8125)"/>
<path d="M0 0 C2.22782189 1.69466793 2.87373025 2.54542892 3.625 5.25 C2.57411523 9.87389297 -0.16913877 12.34107987 -4 15 C-13.03966823 19.11112571 -23.321468 20.80108103 -33 18 C-33.51360297 14.99175403 -33.53413755 12.86371179 -31.8984375 10.21875 C-24.1048387 1.46534839 -11.39030414 -1.99247303 0 0 Z " fill="#409695" transform="translate(275,219)"/>
<path d="M0 0 C4.29 0 8.58 0 13 0 C13.33 14.52 13.66 29.04 14 44 C22.77615339 35.25218732 22.77615339 35.25218732 31 26 C33.45703125 25.4140625 33.45703125 25.4140625 35.8125 25.625 C36.60269531 25.67914063 37.39289062 25.73328125 38.20703125 25.7890625 C38.79871094 25.85867188 39.39039063 25.92828125 40 26 C40 26.66 40 27.32 40 28 C38.3125 29.48046875 38.3125 29.48046875 36 31.1875 C31.47902855 34.59793171 27.21523995 38.22121541 23 42 C23.54050404 46.26166651 26.16118519 49.12775831 28.75 52.375 C29.18054688 52.92671875 29.61109375 53.4784375 30.0546875 54.046875 C31.35731829 55.70831427 32.67522596 57.35617682 34 59 C34.44947998 59.56187012 34.89895996 60.12374023 35.36206055 60.70263672 C37.69461231 63.57167969 39.47498744 65.69443979 43 67 C43 67.99 43 68.98 43 70 C32.79859758 71.35683677 32.79859758 71.35683677 28.99609375 68.48828125 C27.14966847 66.08125456 25.58743917 63.58604516 24 61 C22.71323564 59.16183643 21.39939744 57.34550044 20.07885742 55.53149414 C18.03082187 52.70328597 16.01913332 49.84891413 14 47 C13.67 53.27 13.34 59.54 13 66 C12.67 66 12.34 66 12 66 C12 44.55 12 23.1 12 1 C8.04 1 4.08 1 0 1 C0 0.67 0 0.34 0 0 Z " fill="#447E98" transform="translate(492,289)"/>
<path d="M0 0 C4.35574208 -0.1501051 8.71005266 -0.25802123 13.06762695 -0.32958984 C14.54478221 -0.35947031 16.02176466 -0.40019224 17.49829102 -0.45263672 C27.00318733 -0.78139203 35.35555265 -0.4685824 43 6 C46.85887783 11.52917029 46.74965901 16.43612516 46 23 C44.68696598 27.84071875 41.78561726 30.39039935 37.5625 32.875 C31.94947447 35.82305863 26.97911406 36.12130013 20.6875 36.0625 C19.43324219 36.05347656 18.17898438 36.04445313 16.88671875 36.03515625 C15.93410156 36.02355469 14.98148438 36.01195312 14 36 C14 35.67 14 35.34 14 35 C16.97 35 19.94 35 23 35 C22.67 34.34 22.34 33.68 22 33 C19.03 32.67 16.06 32.34 13 32 C13 23.75 13 15.5 13 7 C13.33 7 13.66 7 14 7 C14 14.92 14 22.84 14 31 C17.3103125 30.5978125 17.3103125 30.5978125 20.6875 30.1875 C21.92886719 30.03667969 23.17023437 29.88585937 24.44921875 29.73046875 C27.96986949 29.00619847 30.12384668 28.11481862 33 26 C35.40231496 21.99614173 35.72989977 17.55494415 35 13 C32.3159289 8.16867203 28.98183796 6.82028695 24 5 C24.66 4.67 25.32 4.34 26 4 C26 3.01 26 2.02 26 1 C17.75 1 9.5 1 1 1 C1 1.66 1 2.32 1 3 C1.99 3.33 2.98 3.66 4 4 C2.68 4 1.36 4 0 4 C0 2.68 0 1.36 0 0 Z " fill="#3E7A94" transform="translate(730,295)"/>
<path d="M0 0 C4.10757963 -0.07489276 8.2148876 -0.12894754 12.32299805 -0.16479492 C13.71662328 -0.17975938 15.11020244 -0.20013851 16.50366211 -0.22631836 C35.59903699 -0.57574933 35.59903699 -0.57574933 42.5 6.0625 C45.74387491 10.36652397 46.49247365 14.68774329 46 20 C44.84933542 24.18307897 43.7306754 27.99122745 39.85546875 30.25 C39.24316406 30.4975 38.63085938 30.745 38 31 C38 31.66 38 32.32 38 33 C32.77487721 34.46670113 28.4185766 35.22577402 23 35 C22.67 34.01 22.34 33.02 22 32 C22.61488281 31.69707031 23.22976563 31.39414062 23.86328125 31.08203125 C30.35140109 27.91075319 30.35140109 27.91075319 34 22 C34.58191332 17.41929768 34.93733696 13.49973914 32.4375 9.5 C26.79117542 6.02533872 20.46336001 5.55693352 14 5 C14 4.67 14 4.34 14 4 C17.3 3.67 20.6 3.34 24 3 C24 2.67 24 2.34 24 2 C16.08 1.67 8.16 1.34 0 1 C0 0.67 0 0.34 0 0 Z " fill="#3C7792" transform="translate(360,295)"/>
<path d="M0 0 C4.29 0 8.58 0 13 0 C13.33 13.53 13.66 27.06 14 41 C14.66 41.33 15.32 41.66 16 42 C16 42.66 16 43.32 16 44 C12.04 44 8.08 44 4 44 C4 30.47 4 16.94 4 3 C2.68 3 1.36 3 0 3 C0 2.01 0 1.02 0 0 Z " fill="#377590" transform="translate(959,315)"/>
<path d="M0 0 C0.33 0.99 0.66 1.98 1 3 C1.66 3 2.32 3 3 3 C3 4.32 3 5.64 3 7 C2.34 7 1.68 7 1 7 C1.37125 7.928125 1.7425 8.85625 2.125 9.8125 C2.558125 11.3903125 2.558125 11.3903125 3 13 C2.01 14.485 2.01 14.485 1 16 C0.67 16.66 0.34 17.32 0 18 C-1.65 18 -3.3 18 -5 18 C-5.33 17.34 -5.66 16.68 -6 16 C-6.33 16.66 -6.66 17.32 -7 18 C-7.66 18 -8.32 18 -9 18 C-9 19.32 -9 20.64 -9 22 C-11.75078884 22.91692961 -13.35948913 23.10886083 -16.1875 23.0625 C-18.0746875 23.0315625 -18.0746875 23.0315625 -20 23 C-20.33 22.34 -20.66 21.68 -21 21 C-22.32 21.33 -23.64 21.66 -25 22 C-25.33 21.34 -25.66 20.68 -26 20 C-25.34 20 -24.68 20 -24 20 C-24.20625 19.443125 -24.4125 18.88625 -24.625 18.3125 C-25.12342848 15.2388577 -24.49545142 13.70605494 -23 11 C-22.34 10.690625 -21.68 10.38125 -21 10.0625 C-18.64479407 9.08728009 -18.64479407 9.08728009 -17.75 5.875 C-17.5025 4.92625 -17.255 3.9775 -17 3 C-15.35 3 -13.7 3 -12 3 C-12.165 3.763125 -12.33 4.52625 -12.5 5.3125 C-13.09145396 8.03596236 -13.09145396 8.03596236 -13 11 C-12.443125 10.4225 -11.88625 9.845 -11.3125 9.25 C-8.98866639 6.9889727 -6.55774076 4.98935393 -4 3 C-3.34 3.33 -2.68 3.66 -2 4 C-1.67 3.01 -1.34 2.02 -1 1 C-0.67 0.67 -0.34 0.34 0 0 Z " fill="#3F9694" transform="translate(84,295)"/>
<path d="M0 0 C2.6875 0.3125 2.6875 0.3125 5 1 C5.66 2.98 6.32 4.96 7 7 C7.66 7 8.32 7 9 7 C9.77976411 12.0251465 9.77976411 12.0251465 9 15 C4.54318868 19.6449878 -0.66960647 21.73062155 -7 22 C-6.67 21.01 -6.34 20.02 -6 19 C-6.87914688 16.3430809 -6.87914688 16.3430809 -8 14 C-8.33 14.66 -8.66 15.32 -9 16 C-9.66 14.02 -10.32 12.04 -11 10 C-11.99 11.485 -11.99 11.485 -13 13 C-13.33 11.35 -13.66 9.7 -14 8 C-14.33 9.32 -14.66 10.64 -15 12 C-15.33 9.36 -15.66 6.72 -16 4 C-12.01752953 1.59600302 -9.52812873 2.16411712 -5.12109375 3.00390625 C-2.89345076 3.23968373 -2.89345076 3.23968373 -1.390625 1.5078125 C-0.93171875 1.01023438 -0.4728125 0.51265625 0 0 Z M-5 17 C-4 19 -4 19 -4 19 Z " fill="#3F9594" transform="translate(305,236)"/>
<path d="M0 0 C0.66 0.66 1.32 1.32 2 2 C1.96484375 4.91796875 1.96484375 4.91796875 1 8 C-1.43359375 9.86328125 -1.43359375 9.86328125 -4.4375 11.3125 C-5.42621094 11.80363281 -6.41492188 12.29476562 -7.43359375 12.80078125 C-8.28050781 13.19652344 -9.12742188 13.59226563 -10 14 C-10.99 14.495 -10.99 14.495 -12 15 C-13.9972542 15.12199138 -15.99905981 15.17547512 -18 15.1875 C-19.0725 15.20167969 -20.145 15.21585938 -21.25 15.23046875 C-24 15 -24 15 -26 13 C-25.84526394 10.06001492 -25.24666302 8.35390782 -23.5625 5.9375 C-16.61730875 0.68625784 -8.63090138 -1.28864153 0 0 Z " fill="#73A1B6" transform="translate(226,217)"/>
<path d="M0 0 C0 0.66 0 1.32 0 2 C-1.6796875 3.18359375 -1.6796875 3.18359375 -3.875 4.4375 C-6.91130355 6.17330794 -7.99102668 6.98654002 -10 10 C-10.34871643 13.27793445 -10.32475128 15.33245569 -8.875 18.3125 C-6.37679172 20.56088745 -4.29051193 20.70751005 -1 21 C-1.33 22.32 -1.66 23.64 -2 25 C-7.96185398 25.31378179 -11.73558904 24.89026484 -17 22 C-20.39108023 18.31438933 -20.64485973 15.41450697 -20.46484375 10.546875 C-19.8094967 6.95623403 -18.53097364 4.85641612 -15.984375 2.2734375 C-11.23937815 -0.77158017 -5.42296018 0 0 0 Z " fill="#31708C" transform="translate(932,335)"/>
<path d="M0 0 C0.76294657 11.57983353 0.76294657 11.57983353 -1.04296875 14.94140625 C-4.11256439 17.95699141 -6.80039572 19.15736167 -11 19.25 C-11.70125 19.27578125 -12.4025 19.3015625 -13.125 19.328125 C-13.74375 19.21984375 -14.3625 19.1115625 -15 19 C-17.47155943 15.29266085 -17.65621517 12.29905063 -17 8 C-14.62724615 3.55108653 -11.64859901 2.11808433 -7.09765625 0.48046875 C-4.68041354 -0.07320137 -2.47176859 -0.08167583 0 0 Z " fill="#F0F5F7" transform="translate(436,336)"/>
<path d="M0 0 C0.8951798 11.32236674 0.8951798 11.32236674 -1.0546875 14.9765625 C-3.77157817 17.48785063 -6.60653894 18.32421054 -10.1875 18.5625 C-14 18 -14 18 -16 16.375 C-17.32615779 13.22537525 -17.54339431 11.39621445 -17 8 C-11.90307875 0.63778042 -8.48320196 -0.2827734 0 0 Z " fill="#F5F9F9" transform="translate(938,337)"/>
<path d="M0 0 C0.8951798 11.32236674 0.8951798 11.32236674 -1.0546875 14.9765625 C-3.77157817 17.48785063 -6.60653894 18.32421054 -10.1875 18.5625 C-14 18 -14 18 -16 16.375 C-17.32615779 13.22537525 -17.54339431 11.39621445 -17 8 C-14.67549565 4.4448757 -12.92437257 2.43268503 -9.0625 0.625 C-5.94981502 -0.01024183 -3.16639926 -0.04403893 0 0 Z " fill="#F6F9FA" transform="translate(806,337)"/>
<path d="M0 0 C0.8951798 11.32236674 0.8951798 11.32236674 -1.0546875 14.9765625 C-3.75530036 17.47280465 -6.62536691 18.34187297 -10.1875 18.625 C-14 18 -14 18 -16.0625 15.9375 C-17.29956784 12.0613541 -17.18424401 9.9010391 -16 6 C-11.32675377 0.40930666 -6.84452418 -0.02789888 0 0 Z " fill="#F6F9F9" transform="translate(637,337)"/>
<path d="M0 0 C0.66 0.33 1.32 0.66 2 1 C2 4.63 2 8.26 2 12 C0.68 12 -0.64 12 -2 12 C-2.33 10.68 -2.66 9.36 -3 8 C-7.96551325 7.64393187 -7.96551325 7.64393187 -12.4375 9.5 C-12.953125 9.995 -13.46875 10.49 -14 11 C-14.99 10.34 -15.98 9.68 -17 9 C-16.34 9 -15.68 9 -15 9 C-14.773125 8.2575 -14.54625 7.515 -14.3125 6.75 C-11.08766876 -0.00678927 -6.83552265 -0.56028874 0 0 Z " fill="#3C7892" transform="translate(485,314)"/>
<path d="M0 0 C0.79921875 0.11085937 1.5984375 0.22171875 2.421875 0.3359375 C3.32679688 0.47902344 3.32679688 0.47902344 4.25 0.625 C3.610625 1.470625 2.97125 2.31625 2.3125 3.1875 C0.48693615 5.8654177 0.20596306 6.95527702 -0.25 10.375 C-0.75 13.625 -0.75 13.625 -2.6875 15.125 C-4.75 15.625 -4.75 15.625 -6.75 14.625 C-6.75 15.285 -6.75 15.945 -6.75 16.625 C-7.41 16.295 -8.07 15.965 -8.75 15.625 C-8.75 14.635 -8.75 13.645 -8.75 12.625 C-9.41 12.625 -10.07 12.625 -10.75 12.625 C-10.42 11.635 -10.09 10.645 -9.75 9.625 C-9.42 9.625 -9.09 9.625 -8.75 9.625 C-8.42 7.975 -8.09 6.325 -7.75 4.625 C-8.41 4.295 -9.07 3.965 -9.75 3.625 C-7.67609396 -0.52281207 -4.21494357 -0.61984464 0 0 Z " fill="#6497AF" transform="translate(124.75,254.375)"/>
<path d="M0 0 C0 0.66 0 1.32 0 2 C0.61875 2.144375 1.2375 2.28875 1.875 2.4375 C4 3 4 3 6 4 C6.3125 6.6875 6.3125 6.6875 6 10 C3.5 12.875 3.5 12.875 1 15 C0.896875 14.05125 0.79375 13.1025 0.6875 12.125 C0.31460705 8.70892499 0.31460705 8.70892499 -3 7 C-3.6875 4.375 -3.6875 4.375 -4 2 C-7.68754757 2.49831724 -9.60490662 3.10067643 -12 6 C-12.33 5.34 -12.66 4.68 -13 4 C-17.16138263 3.91840426 -20.9472484 4.01751476 -25 5 C-24 3 -24 3 -21.953125 2.1484375 C-14.52256961 0.02235373 -7.70289085 -0.33064873 0 0 Z " fill="#459A98" transform="translate(313,235)"/>
<path d="M0 0 C1.13566406 -0.02578125 2.27132813 -0.0515625 3.44140625 -0.078125 C6.4375 0.25 6.4375 0.25 8.30078125 1.625 C9.4375 3.25 9.4375 3.25 10.0625 5.5 C9.07513641 9.84439978 5.96093888 12.63194156 2.4375 15.25 C1.4475 15.25 0.4575 15.25 -0.5625 15.25 C-0.10427532 11.78058454 0.32881683 8.57604951 1.4375 5.25 C1.4375 3.93 1.4375 2.61 1.4375 1.25 C0.7775 1.25 0.1175 1.25 -0.5625 1.25 C-0.5625 2.24 -0.5625 3.23 -0.5625 4.25 C-1.8928125 4.0025 -1.8928125 4.0025 -3.25 3.75 C-6.09846892 3.32004243 -8.69254802 3.16558965 -11.5625 3.25 C-10.5625 1.25 -10.5625 1.25 -8.91015625 0.640625 C-5.92049352 0.14317696 -3.03065966 0.04137419 0 0 Z " fill="#479A99" transform="translate(268.5625,218.75)"/>
<path d="M0 0 C0.86625 0.66 1.7325 1.32 2.625 2 C2.25576923 8.4 2.25576923 8.4 -0.9375 11.4375 C-2.1440625 12.2109375 -2.1440625 12.2109375 -3.375 13 C-4.035 9.7 -4.695 6.4 -5.375 3 C-4.715 3 -4.055 3 -3.375 3 C-3.375 2.01 -3.375 1.02 -3.375 0 C-6.015 -0.33 -8.655 -0.66 -11.375 -1 C-11.375 -0.34 -11.375 0.32 -11.375 1 C-12.12265625 0.96519531 -12.8703125 0.93039062 -13.640625 0.89453125 C-14.62546875 0.86746094 -15.6103125 0.84039062 -16.625 0.8125 C-17.59953125 0.77769531 -18.5740625 0.74289062 -19.578125 0.70703125 C-22.80153307 1.04467874 -23.88022523 2.04575976 -26.375 4 C-30.125 3.6875 -30.125 3.6875 -33.375 3 C-24.85497637 -2.68001575 -9.17794684 -5.21010719 0 0 Z " fill="#4A9C9B" transform="translate(103.375,293)"/>
<path d="M0 0 C1.6796875 1.62890625 1.6796875 1.62890625 2.2421875 4.00390625 C1.44349545 7.7311358 -0.4450569 9.22171551 -3.3203125 11.62890625 C-4.3103125 11.95890625 -5.3003125 12.28890625 -6.3203125 12.62890625 C-6.3203125 13.28890625 -6.3203125 13.94890625 -6.3203125 14.62890625 C-6.9803125 14.29890625 -7.6403125 13.96890625 -8.3203125 13.62890625 C-7.8521004 8.85314286 -7.07699252 5.5841428 -4.3203125 1.62890625 C-8.70616579 0.92716972 -12.87821893 0.5205625 -17.3203125 0.62890625 C-17.3203125 2.27890625 -17.3203125 3.92890625 -17.3203125 5.62890625 C-18.3103125 5.29890625 -19.3003125 4.96890625 -20.3203125 4.62890625 C-20.3203125 3.96890625 -20.3203125 3.30890625 -20.3203125 2.62890625 C-22.3003125 2.62890625 -24.2803125 2.62890625 -26.3203125 2.62890625 C-19.74974306 -1.75147337 -7.0186447 -4.14738096 0 0 Z " fill="#71A0B5" transform="translate(131.3203125,254.37109375)"/>
<path d="M0 0 C0.71607422 -0.01224609 1.43214844 -0.02449219 2.16992188 -0.03710938 C5.96223108 -0.04765333 8.84849094 0.06440785 12.0625 2.1875 C9.05416904 3.69166548 6.71288422 2.79589737 3.4375 2.25 C2.24898437 2.05535156 1.06046875 1.86070312 -0.1640625 1.66015625 C-1.53691406 1.42619141 -1.53691406 1.42619141 -2.9375 1.1875 C-2.9375 1.8475 -2.9375 2.5075 -2.9375 3.1875 C-1.6175 3.5175 -0.2975 3.8475 1.0625 4.1875 C-0.175 4.249375 -1.4125 4.31125 -2.6875 4.375 C-6.06256197 4.79241049 -6.75826967 5.01298626 -9.3125 7.5 C-10.64120109 9.69746719 -11.89495403 11.84177157 -12.9375 14.1875 C-13.9275 14.1875 -14.9175 14.1875 -15.9375 14.1875 C-16.23104834 11.13459731 -16.36782367 8.23125276 -15.9375 5.1875 C-11.27820325 0.15042244 -6.50683903 0.00582528 0 0 Z " fill="#498199" transform="translate(798.9375,313.8125)"/>
<path d="M0 0 C-0.33 2.31 -0.66 4.62 -1 7 C-1.33 6.01 -1.66 5.02 -2 4 C-3.65 4.66 -5.3 5.32 -7 6 C-7 8.31 -7 10.62 -7 13 C-9.70879335 14.35439668 -12.00933268 14.06501451 -15 14 C-15.4375 11.4375 -15.4375 11.4375 -15 8 C-11.32716369 3.11300293 -6.44156287 -2.30055817 0 0 Z " fill="#3F9593" transform="translate(257,223)"/>
<path d="M0 0 C1.39814132 0.09579435 2.7956797 0.21125644 4.1875 0.375 C4.1875 1.035 4.1875 1.695 4.1875 2.375 C2.39453125 3.92578125 2.39453125 3.92578125 0 5.6875 C-2.76762791 7.76757255 -5.36634559 9.79961132 -7.75 12.3125 C-8.430625 12.993125 -9.11125 13.67375 -9.8125 14.375 C-10.4725 14.375 -11.1325 14.375 -11.8125 14.375 C-11.8125 13.715 -11.8125 13.055 -11.8125 12.375 C-13.1325 12.705 -14.4525 13.035 -15.8125 13.375 C-15.43738281 12.93929688 -15.06226563 12.50359375 -14.67578125 12.0546875 C-14.16402344 11.45914062 -13.65226563 10.86359375 -13.125 10.25 C-12.57070313 9.61707031 -12.01640625 8.98414063 -11.4453125 8.33203125 C-9.81664443 6.45231644 -9.81664443 6.45231644 -8.6171875 4.57421875 C-6.07489974 0.84967829 -4.34235611 0.00678493 0 0 Z " fill="#3C7793" transform="translate(527.8125,314.625)"/>
<path d="M0 0 C3.0625 0.3125 3.0625 0.3125 5 1.4375 C6.60402884 4.26813913 5.84476501 6.24862872 5.0625 9.3125 C4.7325 9.9725 4.4025 10.6325 4.0625 11.3125 C0.6875 11.5 0.6875 11.5 -2.9375 11.3125 C-5.23913882 7.86004176 -5.28240322 6.36511287 -4.9375 2.3125 C-2.9375 0.3125 -2.9375 0.3125 0 0 Z " fill="#3A7792" transform="translate(966.9375,294.6875)"/>
<path d="M0 0 C1.65 0 3.3 0 5 0 C4.01 0.33 3.02 0.66 2 1 C2.226875 2.258125 2.45375 3.51625 2.6875 4.8125 C3.1995826 8.72231986 3.1995826 8.72231986 1.5625 11 C1.046875 11.33 0.53125 11.66 0 12 C1.32 11.34 2.64 10.68 4 10 C3.67 11.65 3.34 13.3 3 15 C3.33 14.67 3.66 14.34 4 14 C5.66617115 13.95936168 7.33388095 13.957279 9 14 C8 16 8 16 6.07421875 16.8515625 C5.28660156 17.10679687 4.49898437 17.36203125 3.6875 17.625 C2.51767578 18.01558594 2.51767578 18.01558594 1.32421875 18.4140625 C-1 19 -1 19 -5 19 C-4.11223998 15.30099992 -3.05418136 11.65449539 -2 8 C-2.99 7.01 -3.98 6.02 -5 5 C-4.01 4.67 -3.02 4.34 -2 4 C-1.34 4.33 -0.68 4.66 0 5 C0 3.35 0 1.7 0 0 Z " fill="#6497AE" transform="translate(114,255)"/>
<path d="M0 0 C-0.33 0.99 -0.66 1.98 -1 3 C0.65 3 2.3 3 4 3 C4 3.33 4 3.66 4 4 C3.37351562 4.02578125 2.74703125 4.0515625 2.1015625 4.078125 C1.28429687 4.13484375 0.46703125 4.1915625 -0.375 4.25 C-1.18710937 4.29640625 -1.99921875 4.3428125 -2.8359375 4.390625 C-5.14893594 4.78405202 -5.14893594 4.78405202 -6.1875 6.84375 C-6.455625 7.5553125 -6.72375 8.266875 -7 9 C-8 11 -9 13 -10 15 C-10.99 15 -11.98 15 -13 15 C-13.29033531 11.61920665 -13.43407528 8.37202384 -13 5 C-9.17756083 0.76432417 -5.55773116 -0.15020895 0 0 Z " fill="#3F7A95" transform="translate(425,314)"/>
<path d="M0 0 C0.69738281 0.00451172 1.39476562 0.00902344 2.11328125 0.01367188 C3.82555803 0.0253998 5.53779033 0.04333347 7.25 0.0625 C7.25 0.3925 7.25 0.7225 7.25 1.0625 C1.31 1.5575 1.31 1.5575 -4.75 2.0625 C-3.1 2.3925 -1.45 2.7225 0.25 3.0625 C0.25 3.3925 0.25 3.7225 0.25 4.0625 C-0.966875 4.10375 -2.18375 4.145 -3.4375 4.1875 C-6.8552389 4.59956781 -8.46297197 5.29423729 -10.6875 7.9375 C-12.84297917 10.91035727 -12.84297917 10.91035727 -13.75 14.0625 C-14.74 14.0625 -15.73 14.0625 -16.75 14.0625 C-17.04354096 11.00967403 -17.1751429 8.10673312 -16.75 5.0625 C-11.94661963 -0.2745893 -6.78242938 -0.08333798 0 0 Z " fill="#34718D" transform="translate(931.75,313.9375)"/>
<path d="M0 0 C0.9796875 -0.01417969 1.959375 -0.02835938 2.96875 -0.04296875 C5.5 0.1875 5.5 0.1875 7.5 2.1875 C7.4375 5.125 7.4375 5.125 6.5 8.1875 C4.09196729 10.03983285 2.57258075 11.1875 -0.5 11.1875 C-0.83 8.2175 -1.16 5.2475 -1.5 2.1875 C-5.955 2.6825 -5.955 2.6825 -10.5 3.1875 C-6.54603601 0.55152401 -4.71192035 0.03099948 0 0 Z " fill="#75A3B8" transform="translate(220.5,216.8125)"/>
<path d="M0 0 C0.33 3.3 0.66 6.6 1 10 C-1.64 10.33 -4.28 10.66 -7 11 C-7.33 10.01 -7.66 9.02 -8 8 C-7.67 7.34 -7.34 6.68 -7 6 C-7.99 5.67 -8.98 5.34 -10 5 C-9.67 3.68 -9.34 2.36 -9 1 C-5.72921858 0.03087958 -3.60964568 0 0 0 Z " fill="#6496AE" transform="translate(219,219)"/>
<path d="M0 0 C0 0.66 0 1.32 0 2 C1.65 2 3.3 2 5 2 C5 2.33 5 2.66 5 3 C3.7625 3.061875 2.525 3.12375 1.25 3.1875 C-2.12506197 3.60491049 -2.82076967 3.82548626 -5.375 6.3125 C-6.70370109 8.50996719 -7.95745403 10.65427157 -9 13 C-9.99 13 -10.98 13 -12 13 C-12.77303488 4.96043727 -12.77303488 4.96043727 -9.9375 1.4375 C-6.4026107 -0.29233945 -3.88817732 -0.30495508 0 0 Z " fill="#3C7792" transform="translate(626,315)"/>
<path d="M0 0 C1.79244141 0.01740234 1.79244141 0.01740234 3.62109375 0.03515625 C5.41740234 0.04869141 5.41740234 0.04869141 7.25 0.0625 C8.17683594 0.07410156 9.10367188 0.08570313 10.05859375 0.09765625 C10.05859375 0.42765625 10.05859375 0.75765625 10.05859375 1.09765625 C6.98242188 1.390625 6.98242188 1.390625 3.90625 1.68359375 C3.29652344 1.82023437 2.68679688 1.956875 2.05859375 2.09765625 C1.72859375 2.75765625 1.39859375 3.41765625 1.05859375 4.09765625 C2.04859375 4.42765625 3.03859375 4.75765625 4.05859375 5.09765625 C2.41890625 5.31421875 2.41890625 5.31421875 0.74609375 5.53515625 C-2.87263612 5.98053729 -2.87263612 5.98053729 -5.94140625 7.09765625 C-6.27140625 8.08765625 -6.60140625 9.07765625 -6.94140625 10.09765625 C-8.26140625 9.76765625 -9.58140625 9.43765625 -10.94140625 9.09765625 C-10.94140625 7.11765625 -10.94140625 5.13765625 -10.94140625 3.09765625 C-9.95140625 4.58265625 -9.95140625 4.58265625 -8.94140625 6.09765625 C-7.73484375 4.89109375 -7.73484375 4.89109375 -6.50390625 3.66015625 C-2.94140625 0.09765625 -2.94140625 0.09765625 0 0 Z " fill="#447E96" transform="translate(849.94140625,313.90234375)"/>
<path d="M0 0 C2.1385485 2.1385485 2.42655063 3.13275314 3 6 C3.33 5.34 3.66 4.68 4 4 C4.50615298 5.26839526 5.00469099 6.53983102 5.5 7.8125 C5.7784375 8.52019531 6.056875 9.22789062 6.34375 9.95703125 C7 12 7 12 7 15 C1.12116651 17.61281488 -4.70731728 17.18328202 -11 17 C-11 16.67 -11 16.34 -11 16 C-4.565 15.505 -4.565 15.505 2 15 C1.67 13.2675 1.34 11.535 1 9.75 C0.3534064 6.35538361 0 3.47976503 0 0 Z " fill="#509F9F" transform="translate(293,244)"/>
<path d="M0 0 C1.9375 1.875 1.9375 1.875 2.25 5.0625 C2.146875 5.990625 2.04375 6.91875 1.9375 7.875 C1.2775 7.545 0.6175 7.215 -0.0625 6.875 C-0.6875 4.3125 -0.6875 4.3125 -1.0625 1.875 C-1.7225 1.875 -2.3825 1.875 -3.0625 1.875 C-3.0625 2.865 -3.0625 3.855 -3.0625 4.875 C-4.0525 5.205 -5.0425 5.535 -6.0625 5.875 C-6.7225 5.215 -7.3825 4.555 -8.0625 3.875 C-8.7225 4.535 -9.3825 5.195 -10.0625 5.875 C-10.0625 4.225 -10.0625 2.575 -10.0625 0.875 C-12.3725 0.875 -14.6825 0.875 -17.0625 0.875 C-17.0625 0.545 -17.0625 0.215 -17.0625 -0.125 C-11.37070238 -1.593851 -5.55446316 -2.04041504 0 0 Z " fill="#75A2B6" transform="translate(181.0625,229.125)"/>
<path d="M0 0 C-0.33 1.65 -0.66 3.3 -1 5 C-0.67 5 -0.34 5 0 5 C0 6.98 0 8.96 0 11 C-1.98 11 -3.96 11 -6 11 C-6.83220851 7.02389268 -7.23098442 3.9167686 -6 0 C-3.50907189 -1.24546405 -2.58919267 -0.7767578 0 0 Z " fill="#6496AD" transform="translate(102,264)"/>
<path d="M0 0 C0.33 0 0.66 0 1 0 C1 10.23 1 20.46 1 31 C2.32 31 3.64 31 5 31 C5 31.99 5 32.98 5 34 C0.71 34 -3.58 34 -8 34 C-8 33.67 -8 33.34 -8 33 C-5.36 33 -2.72 33 0 33 C0 22.11 0 11.22 0 0 Z " fill="#5791A5" transform="translate(868,325)"/>
<path d="M0 0 C0.99 0.33 1.98 0.66 3 1 C2.6875 3.375 2.6875 3.375 2 6 C-1.63195496 8.42130331 -3.38349348 8.21022785 -7.6875 8.125 C-8.86699219 8.10695313 -10.04648437 8.08890625 -11.26171875 8.0703125 C-12.16535156 8.04710937 -13.06898438 8.02390625 -14 8 C-14 7.67 -14 7.34 -14 7 C-11.03 7 -8.06 7 -5 7 C-5 6.34 -5 5.68 -5 5 C-5.66 4.34 -6.32 3.68 -7 3 C-5.5459375 2.5359375 -5.5459375 2.5359375 -4.0625 2.0625 C-1.15934208 1.30476658 -1.15934208 1.30476658 0 0 Z " fill="#4B829A" transform="translate(904,352)"/>
<path d="M0 0 C0.33 0 0.66 0 1 0 C1 7.59 1 15.18 1 23 C0.67 23 0.34 23 0 23 C0 19.04 0 15.08 0 11 C-1.98 11 -3.96 11 -6 11 C-6 10.67 -6 10.34 -6 10 C-7.65 9.67 -9.3 9.34 -11 9 C-7.46588679 6.87953208 -4.05606165 6.46800711 0 6 C0 4.02 0 2.04 0 0 Z " fill="#538AA2" transform="translate(806,326)"/>
<path d="M0 0 C0.33 0 0.66 0 1 0 C1 1.65 1 3.3 1 5 C2.32 4.67 3.64 4.34 5 4 C5 4.99 5 5.98 5 7 C2.8828125 8.640625 2.8828125 8.640625 0.125 10.25 C-1.23238281 11.06210937 -1.23238281 11.06210937 -2.6171875 11.890625 C-3.40351563 12.25671875 -4.18984375 12.6228125 -5 13 C-5.66 12.67 -6.32 12.34 -7 12 C-5.625 10.5 -5.625 10.5 -4 9 C-3.34 9 -2.68 9 -2 9 C-2.33 7.35 -2.66 5.7 -3 4 C-2.34 4 -1.68 4 -1 4 C-0.67 2.68 -0.34 1.36 0 0 Z " fill="#499A9B" transform="translate(308,245)"/>
<path d="M0 0 C0.66 0.33 1.32 0.66 2 1 C1.51917969 1.37769531 1.03835937 1.75539063 0.54296875 2.14453125 C-1.53662958 4.64531405 -1.49841577 6.47306804 -1.6875 9.6875 C-1.75324219 10.68136719 -1.81898437 11.67523438 -1.88671875 12.69921875 C-1.92410156 13.45847656 -1.96148437 14.21773438 -2 15 C-2.33 15 -2.66 15 -3 15 C-3 12.69 -3 10.38 -3 8 C-3.99 8.33 -4.98 8.66 -6 9 C-6.33 8.01 -6.66 7.02 -7 6 C-8.32 6.33 -9.64 6.66 -11 7 C-8.84658594 4.65082102 -6.78332063 3.17556996 -3.9375 1.75 C-3.24527344 1.39421875 -2.55304688 1.0384375 -1.83984375 0.671875 C-1.23269531 0.45015625 -0.62554687 0.2284375 0 0 Z " fill="#59A5A3" transform="translate(68,296)"/>
<path d="M0 0 C-0.2165625 0.8353125 -0.2165625 0.8353125 -0.4375 1.6875 C-1.02769128 4.11384195 -1.523429 6.54906345 -2 9 C-1.34 9 -0.68 9 0 9 C0 9.99 0 10.98 0 12 C-2.375 12.125 -2.375 12.125 -5 12 C-5.66 11.34 -6.32 10.68 -7 10 C-6.84114718 6.34638504 -6.39140907 4.47979177 -4.0625 1.625 C-2 0 -2 0 0 0 Z " fill="#77A3B7" transform="translate(93,263)"/>
<path d="M0 0 C0.66 0.33 1.32 0.66 2 1 C2 1.66 2 2.32 2 3 C5.63 2.01 9.26 1.02 13 0 C13.66 0.66 14.32 1.32 15 2 C9.326858 4.45417612 4.18160604 6.46246904 -2 7 C-2 5.68 -2 4.36 -2 3 C-1.34 3 -0.68 3 0 3 C0 2.01 0 1.02 0 0 Z " fill="#469A9A" transform="translate(77,310)"/>
<path d="M0 0 C0 0.33 0 0.66 0 1 C-2.31 1 -4.62 1 -7 1 C-7 1.66 -7 2.32 -7 3 C-7.74765625 2.96519531 -8.4953125 2.93039062 -9.265625 2.89453125 C-10.25046875 2.86746094 -11.2353125 2.84039062 -12.25 2.8125 C-13.22453125 2.77769531 -14.1990625 2.74289062 -15.203125 2.70703125 C-18.42653307 3.04467874 -19.50522523 4.04575976 -22 6 C-25.75 5.6875 -25.75 5.6875 -29 5 C-20.46845161 -0.68769893 -9.88338637 -0.39475064 0 0 Z " fill="#8BC0BD" transform="translate(99,291)"/>
<path d="M0 0 C0 0.33 0 0.66 0 1 C-1.2375 1.0825 -2.475 1.165 -3.75 1.25 C-6.98882964 1.63475459 -7.87907883 1.90024003 -10.5 4.0625 C-10.995 4.701875 -11.49 5.34125 -12 6 C-12.33 5.34 -12.66 4.68 -13 4 C-17.16138263 3.91840426 -20.9472484 4.01751476 -25 5 C-24 3 -24 3 -21.953125 2.1484375 C-14.52256961 0.02235373 -7.70289085 -0.33064873 0 0 Z " fill="#74B3B0" transform="translate(313,235)"/>
<path d="M0 0 C2.4294516 3.6441774 2.16179575 5.71241272 2 10 C3.32 10.33 4.64 10.66 6 11 C2.71480525 12.09506492 0.26336585 12.09960608 -3.1875 12.0625 C-4.81751953 12.04896484 -4.81751953 12.04896484 -6.48046875 12.03515625 C-7.31191406 12.02355469 -8.14335938 12.01195312 -9 12 C-9 11.67 -9 11.34 -9 11 C-6.03 11 -3.06 11 0 11 C-0.66 10.67 -1.32 10.34 -2 10 C-2.25 3.375 -2.25 3.375 0 0 Z " fill="#72A1B7" transform="translate(102,264)"/>
<path d="M0 0 C0.66 0.33 1.32 0.66 2 1 C1.01 2.485 1.01 2.485 0 4 C-0.66 4 -1.32 4 -2 4 C-1.67 7.3 -1.34 10.6 -1 14 C0.32 13.01 1.64 12.02 3 11 C3 12.32 3 13.64 3 15 C0.6875 15.25 0.6875 15.25 -2 15 C-3.875 13.375 -3.875 13.375 -5 11 C-4.7586135 7.98266875 -4.35358479 5.70716958 -3 3 C-2.34 3 -1.68 3 -1 3 C-0.67 2.01 -0.34 1.02 0 0 Z " fill="#58A3A1" transform="translate(278,245)"/>
<path d="M0 0 C0 0.66 0 1.32 0 2 C0.66 2.33 1.32 2.66 2 3 C1.34 3 0.68 3 0 3 C0 3.66 0 4.32 0 5 C-3.00313748 6.50156874 -5.79067522 6.09281204 -9.125 6.0625 C-10.40632812 6.05347656 -11.68765625 6.04445313 -13.0078125 6.03515625 C-14.48894531 6.01775391 -14.48894531 6.01775391 -16 6 C-16.33 5.34 -16.66 4.68 -17 4 C-12.71 4.33 -8.42 4.66 -4 5 C-4 4.34 -4 3.68 -4 3 C-5.65 2.67 -7.3 2.34 -9 2 C-9 1.67 -9 1.34 -9 1 C-2.25 0 -2.25 0 0 0 Z " fill="#5A8EA5" transform="translate(633,354)"/>
<path d="M0 0 C-0.33 0.99 -0.66 1.98 -1 3 C-0.01 3 0.98 3 2 3 C2 7.29 2 11.58 2 16 C1.67 16 1.34 16 1 16 C1 12.04 1 8.08 1 4 C-0.98 4 -2.96 4 -5 4 C-5 3.34 -5 2.68 -5 2 C-8.3 2.33 -11.6 2.66 -15 3 C-15 2.67 -15 2.34 -15 2 C-13.43883181 1.66048381 -11.87598662 1.32867456 -10.3125 1 C-9.44238281 0.814375 -8.57226562 0.62875 -7.67578125 0.4375 C-5.06287036 0.01027953 -2.64186962 -0.07616201 0 0 Z " fill="#558BA2" transform="translate(937,333)"/>
<path d="M0 0 C-0.33 2.31 -0.66 4.62 -1 7 C-1.33 6.01 -1.66 5.02 -2 4 C-2.928125 4.37125 -3.85625 4.7425 -4.8125 5.125 C-5.864375 5.41375 -6.91625 5.7025 -8 6 C-8.99 5.34 -9.98 4.68 -11 4 C-4.45754717 -1.33726415 -4.45754717 -1.33726415 0 0 Z " fill="#519F9D" transform="translate(257,223)"/>
<path d="M0 0 C0 0.33 0 0.66 0 1 C-4.95 1.33 -9.9 1.66 -15 2 C-15 3.65 -15 5.3 -15 7 C-15.99 6.67 -16.98 6.34 -18 6 C-18 5.34 -18 4.68 -18 4 C-19.98 4 -21.96 4 -24 4 C-16.8350205 -0.776653 -8.32645748 -0.25359769 0 0 Z " fill="#90B5C5" transform="translate(129,253)"/>
<path d="M0 0 C0.66 0 1.32 0 2 0 C2.33 2.31 2.66 4.62 3 7 C2.01 7.495 2.01 7.495 1 8 C0.34786708 10.02463255 0.34786708 10.02463255 0 12 C-0.99 11.67 -1.98 11.34 -3 11 C-2.34 11 -1.68 11 -1 11 C-1 10.01 -1 9.02 -1 8 C-1.66 8 -2.32 8 -3 8 C-3 6.68 -3 5.36 -3 4 C-2.34 4 -1.68 4 -1 4 C-0.67 2.68 -0.34 1.36 0 0 Z " fill="#6396AD" transform="translate(153,235)"/>
<path d="M0 0 C2 1 2 1 2.875 2.8125 C3 5 3 5 1.25 7.25 C-1 9 -1 9 -4 9 C-4 8.01 -4 7.02 -4 6 C-3.34 6 -2.68 6 -2 6 C-2 4.35 -2 2.7 -2 1 C-1.34 0.67 -0.68 0.34 0 0 Z " fill="#6898B0" transform="translate(129,257)"/>
<path d="M0 0 C0.33 0.66 0.66 1.32 1 2 C1.66 2 2.32 2 3 2 C3 3.65 3 5.3 3 7 C5.16666667 6.16666667 5.16666667 6.16666667 6 4 C7.98 4.66 9.96 5.32 12 6 C8.78817851 7.90608098 6.46117397 8.22266247 2.75 8.125 C1.85796875 8.10695312 0.9659375 8.08890625 0.046875 8.0703125 C-0.96632812 8.03550781 -0.96632812 8.03550781 -2 8 C-1.34 7.67 -0.68 7.34 0 7 C0 4.69 0 2.38 0 0 Z " fill="#6998B0" transform="translate(153,240)"/>
<path d="M0 0 C0.66 0.33 1.32 0.66 2 1 C2 1.66 2 2.32 2 3 C2.66 3 3.32 3 4 3 C4.33 2.01 4.66 1.02 5 0 C5 1.32 5 2.64 5 4 C11.93 4.495 11.93 4.495 19 5 C19 5.33 19 5.66 19 6 C13.72 6 8.44 6 3 6 C3 5.34 3 4.68 3 4 C1.68 3.67 0.36 3.34 -1 3 C-0.67 2.01 -0.34 1.02 0 0 Z " fill="#69ABAB" transform="translate(50,313)"/>
<path d="M0 0 C0 0.66 0 1.32 0 2 C-0.99 2 -1.98 2 -3 2 C-2.34 5.63 -1.68 9.26 -1 13 C-3.36841312 11.42105792 -5.06745228 10.0245738 -7 8 C-6.34 8 -5.68 8 -5 8 C-4.67 6.68 -4.34 5.36 -4 4 C-4.99 3.67 -5.98 3.34 -7 3 C-2.25 0 -2.25 0 0 0 Z " fill="#4A9D9D" transform="translate(287,241)"/>
<path d="M0 0 C1 3 1 3 0.3125 5.125 C-1 7 -1 7 -3.125 7.75 C-4.053125 7.87375 -4.053125 7.87375 -5 8 C-5 7.34 -5 6.68 -5 6 C-7.31 6 -9.62 6 -12 6 C-12 5.67 -12 5.34 -12 5 C-11.07767578 4.83564453 -11.07767578 4.83564453 -10.13671875 4.66796875 C-9.32847656 4.50941406 -8.52023437 4.35085938 -7.6875 4.1875 C-6.88699219 4.03667969 -6.08648438 3.88585937 -5.26171875 3.73046875 C-2.76554413 2.92427764 -1.67577894 1.97947998 0 0 Z " fill="#4A829A" transform="translate(805,350)"/>
<path d="M0 0 C1.75570313 0.01353516 1.75570313 0.01353516 3.546875 0.02734375 C4.43890625 0.03894531 5.3309375 0.05054688 6.25 0.0625 C6.25 0.3925 6.25 0.7225 6.25 1.0625 C3.94 1.0625 1.63 1.0625 -0.75 1.0625 C-0.75 2.0525 -0.75 3.0425 -0.75 4.0625 C-2.0803125 3.815 -2.0803125 3.815 -3.4375 3.5625 C-6.28596892 3.13254243 -8.88004802 2.97808965 -11.75 3.0625 C-10.75 1.0625 -10.75 1.0625 -9.109375 0.44140625 C-6.04728012 -0.05035402 -3.10003047 -0.0310003 0 0 Z " fill="#6EB1AE" transform="translate(268.75,218.9375)"/>
<path d="M0 0 C0.69738281 0.00451172 1.39476562 0.00902344 2.11328125 0.01367188 C3.82555803 0.0253998 5.53779033 0.04333347 7.25 0.0625 C7.25 0.3925 7.25 0.7225 7.25 1.0625 C1.31 1.5575 1.31 1.5575 -4.75 2.0625 C-3.1 2.3925 -1.45 2.7225 0.25 3.0625 C0.25 3.3925 0.25 3.7225 0.25 4.0625 C-2.39 4.0625 -5.03 4.0625 -7.75 4.0625 C-7.75 3.4025 -7.75 2.7425 -7.75 2.0625 C-9.07 1.7325 -10.39 1.4025 -11.75 1.0625 C-7.88276369 -0.20332219 -4.01848738 -0.0493765 0 0 Z " fill="#6393AA" transform="translate(931.75,313.9375)"/>
<path d="M0 0 C0.33 0.66 0.66 1.32 1 2 C1.99 2.33 2.98 2.66 4 3 C0.04 4.98 0.04 4.98 -4 7 C-4 6.01 -4 5.02 -4 4 C-5.98 4 -7.96 4 -10 4 C-10 3.67 -10 3.34 -10 3 C-9.04287109 2.80083984 -9.04287109 2.80083984 -8.06640625 2.59765625 C-7.24011719 2.42105469 -6.41382813 2.24445313 -5.5625 2.0625 C-4.73878906 1.88847656 -3.91507813 1.71445312 -3.06640625 1.53515625 C-1.02338796 1.19247006 -1.02338796 1.19247006 0 0 Z " fill="#49819A" transform="translate(935,352)"/>
<path d="M0 0 C0.66 0.33 1.32 0.66 2 1 C-2.29 5.29 -6.58 9.58 -11 14 C-11.33 13.01 -11.66 12.02 -12 11 C-8.04 7.37 -4.08 3.74 0 0 Z " fill="#D7E4EA" transform="translate(526,320)"/>
<path d="M0 0 C0 1.65 0 3.3 0 5 C-0.99 5.33 -1.98 5.66 -3 6 C-3.66 5.34 -4.32 4.68 -5 4 C-7.06874034 3.3574765 -7.06874034 3.3574765 -9 3 C-5.92807025 0.26939578 -4.09590633 -0.34132553 0 0 Z " fill="#74A2B6" transform="translate(102,259)"/>
<path d="M0 0 C0 0.99 0 1.98 0 3 C-3.63 3 -7.26 3 -11 3 C-11 2.34 -11 1.68 -11 1 C-7.32589215 -0.17571451 -3.83070817 -0.07366746 0 0 Z " fill="#296987" transform="translate(905,316)"/>
<path d="M0 0 C-0.33 0.99 -0.66 1.98 -1 3 C0.65 3 2.3 3 4 3 C4 3.33 4 3.66 4 4 C-0.455 4.495 -0.455 4.495 -5 5 C-5 4.01 -5 3.02 -5 2 C-6.32 2.33 -7.64 2.66 -9 3 C-7.14340032 -0.71319936 -3.69365381 -0.09982848 0 0 Z " fill="#6293A8" transform="translate(425,314)"/>
<path d="M0 0 C2.475 0.99 2.475 0.99 5 2 C3.02579865 4.52259061 2.03254358 4.9929808 -1.1875 5.6875 C-2.5796875 5.8421875 -2.5796875 5.8421875 -4 6 C-4 5.01 -4 4.02 -4 3 C-3.34 3 -2.68 3 -2 3 C-1.67 2.34 -1.34 1.68 -1 1 C-1 1.99 -1 2.98 -1 4 C-0.34 4 0.32 4 1 4 C0.67 2.68 0.34 1.36 0 0 Z " fill="#75A1B6" transform="translate(169,240)"/>
<path d="M0 0 C0 0.33 0 0.66 0 1 C-1.65 1 -3.3 1 -5 1 C-5.33 2.98 -5.66 4.96 -6 7 C-6.33 7 -6.66 7 -7 7 C-7 5.35 -7 3.7 -7 2 C-9.31 2 -11.62 2 -14 2 C-14 1.67 -14 1.34 -14 1 C-9.32798795 -0.20568053 -4.78503708 -0.09382426 0 0 Z " fill="#93B7C3" transform="translate(178,228)"/>
<path d="M0 0 C0.515625 0.2475 1.03125 0.495 1.5625 0.75 C0.5725 1.41 -0.4175 2.07 -1.4375 2.75 C-1.7675 3.74 -2.0975 4.73 -2.4375 5.75 C-7.1875 4.875 -7.1875 4.875 -9.4375 3.75 C-3.0375 -0.31153846 -3.0375 -0.31153846 0 0 Z " fill="#7EA9BA" transform="translate(162.4375,230.25)"/>
<path d="M0 0 C0.66 0 1.32 0 2 0 C2.33 0.33 2.66 0.66 3 1 C4.66617115 1.04063832 6.33388095 1.042721 8 1 C7.67 1.66 7.34 2.32 7 3 C4.93359375 3.6328125 4.93359375 3.6328125 2.4375 4.125 C1.61121094 4.29257812 0.78492187 4.46015625 -0.06640625 4.6328125 C-0.70449219 4.75398438 -1.34257813 4.87515625 -2 5 C-1.34 3.35 -0.68 1.7 0 0 Z " fill="#83ACBE" transform="translate(115,268)"/>
<path d="M0 0 C0.99 0.66 1.98 1.32 3 2 C-3.625 5 -3.625 5 -7 5 C-7 4.34 -7 3.68 -7 3 C-3.6875 1.375 -3.6875 1.375 0 0 Z " fill="#5CA3A4" transform="translate(89,310)"/>
<path d="M0 0 C0 3 0 6 0 9 C-0.99 9 -1.98 9 -3 9 C-3.36923077 3.46153846 -3.36923077 3.46153846 -1.5 1.125 C-1.005 0.75375 -0.51 0.3825 0 0 Z " fill="#60A8A6" transform="translate(245,228)"/>
<path d="M0 0 C2.97 0.495 2.97 0.495 6 1 C1.375 5 1.375 5 -2 5 C-1.34 3.35 -0.68 1.7 0 0 Z " fill="#4E9D9D" transform="translate(94,305)"/>
<path d="M0 0 C-0.33 2.31 -0.66 4.62 -1 7 C-3 4 -3 4 -3 1 C-3.99 0.67 -4.98 0.34 -6 0 C-3.50907189 -1.24546405 -2.58919267 -0.7767578 0 0 Z " fill="#57A5A3" transform="translate(257,223)"/>
<path d="M0 0 C1.65 0 3.3 0 5 0 C5 0.99 5 1.98 5 3 C3.02 3 1.04 3 -1 3 C-0.67 2.01 -0.34 1.02 0 0 Z " fill="#2B6B88" transform="translate(424,356)"/>
<path d="M0 0 C-0.99 1.485 -0.99 1.485 -2 3 C-4.31 2.67 -6.62 2.34 -9 2 C-5.5647952 -0.29013653 -4.014669 -0.17842973 0 0 Z " fill="#69ACAB" transform="translate(79,294)"/>
<path d="M0 0 C0.99 0.33 1.98 0.66 3 1 C2.67 2.32 2.34 3.64 2 5 C0.68 5 -0.64 5 -2 5 C-1.125 1.125 -1.125 1.125 0 0 Z " fill="#709DB4" transform="translate(111,269)"/>
<path d="M0 0 C2.31 0.66 4.62 1.32 7 2 C3.36576791 4.32590854 0.22911669 4.16265833 -4 4 C-2.68 3.34 -1.36 2.68 0 2 C0 1.34 0 0.68 0 0 Z " fill="#7EA5BC" transform="translate(158,244)"/>
</svg>
